<?xml version="1.0" standalone="no"?><!DOCTYPE svg PUBLIC "-//W3C//DTD SVG 1.1//EN" "http://www.w3.org/Graphics/SVG/1.1/DTD/svg11.dtd"><svg t="1732582228617" class="icon" viewBox="0 0 1024 1024" version="1.1" xmlns="http://www.w3.org/2000/svg" p-id="60954" xmlns:xlink="http://www.w3.org/1999/xlink" width="200" height="200"><path d="M355.1744 569.6a313.344 313.344 0 0 0 253.1328 4.096l9.3184-4.096H647.68c24.0128 0 47.232 3.5072 69.12 10.0352a207.36 207.36 0 0 0 88.5504 393.1392l-2.1504 0.0256H169.6a86.4256 86.4256 0 0 1-86.272-81.664l-0.128-4.736V811.52c0-131.2512 104.6528-238.1824 235.0336-241.8176l6.8864-0.1024h30.0544z m511.1296 58.2656c7.168 1.7664 14.336 5.2992 19.712 8.8064 7.168 3.5328 12.544 7.0656 19.712 12.3648 5.376 5.2992 8.96 12.3392 7.168 21.1712l-1.792 5.2992c-3.584 12.3392-1.792 26.4704 5.376 38.8096 7.168 10.5984 17.92 19.4048 30.464 22.9376h5.376c7.168 0 14.336 5.2992 16.128 14.1312 1.792 7.04 1.792 15.872 1.792 22.9376v21.1712c-1.792 7.04-7.168 14.1056-14.336 15.872l-5.376 1.7664c-12.544 3.5328-23.296 12.3392-30.464 24.704-7.168 12.3392-8.96 24.704-5.376 37.0432l1.792 5.2992c1.792 7.0656 0 15.872-5.376 21.1712-5.376 5.2992-10.752 8.832-17.92 12.3648-7.168 3.5328-12.544 7.04-19.712 10.5728-7.168 1.792-16.128 0-21.504-3.5328l-3.584-3.5072c-8.96-8.832-23.296-14.1312-35.84-14.1312-14.336 0-26.88 5.2992-35.84 14.1312l-3.584 3.5072c-5.376 5.2992-14.336 7.0656-21.504 5.2992a66.7392 66.7392 0 0 1-19.712-8.8064 120.8064 120.8064 0 0 1-19.712-12.3648c-5.376-5.2992-8.96-12.3392-7.168-21.1712l1.792-5.2992c3.584-14.1056 1.792-26.4704-5.376-38.8096-7.168-10.5984-17.92-19.4048-30.464-22.9376H665.6c-7.168-1.792-14.336-7.0656-16.128-15.872-1.792-7.0656-1.792-14.1312-1.792-21.1968v-21.1712c1.792-7.04 7.168-14.1056 14.336-15.872l5.376-1.7664c12.544-3.5328 23.296-12.3392 30.464-24.704 7.168-12.3392 8.96-24.704 5.376-38.8096l-1.792-3.5328c-1.792-7.0656 0-15.872 5.376-21.1712 5.376-5.2992 10.752-8.832 17.92-12.3648 7.168-3.5328 12.544-7.04 19.712-10.5728 7.168-1.792 16.128 0 21.504 3.5328l3.584 3.5072c8.96 8.832 23.296 14.1312 35.84 14.1312 14.336 0 26.88-5.2992 35.84-14.1312l3.584-3.5072c5.376-5.2992 14.336-7.0656 21.504-5.2992z m-57.344 86.4512c-35.84 0-64.512 30.0032-62.72 63.5136 0 35.3024 28.672 61.7728 64.512 61.7728s64.512-30.0032 62.72-63.5136c0-35.3024-30.464-63.5392-64.512-61.7728zM486.4 51.2a230.4 230.4 0 0 1 230.4 230.4 230.4 230.4 0 0 1-230.4 230.4 230.4 230.4 0 0 1-230.4-230.4 230.4 230.4 0 0 1 230.4-230.4z" fill="#0A59CC" p-id="60955"></path></svg>