<?xml version="1.0" standalone="no"?><!DOCTYPE svg PUBLIC "-//W3C//DTD SVG 1.1//EN" "http://www.w3.org/Graphics/SVG/1.1/DTD/svg11.dtd"><svg t="1732582618229" class="icon" viewBox="0 0 1024 1024" version="1.1" xmlns="http://www.w3.org/2000/svg" p-id="85554" xmlns:xlink="http://www.w3.org/1999/xlink" width="200" height="200"><path d="M512 512H0A512 512 0 1 0 512 0 512 512 0 0 0 0 512z" fill="#D2DDE3" p-id="85555"></path><path d="M512 1024a509.713067 509.713067 0 0 0 352.017067-140.8 166.468267 166.468267 0 0 0-94.208-71.68A645.666133 645.666133 0 0 0 512 773.632a645.666133 645.666133 0 0 0-257.774933 37.888 166.468267 166.468267 0 0 0-94.208 71.68A509.713067 509.713067 0 0 0 512 1024z" fill="#5579A7" p-id="85556"></path><path d="M430.353067 685.806933h163.328v138.24h-163.328z" fill="#F7D2BA" p-id="85557"></path><path d="M656.520533 499.473067a50.176 50.176 0 1 0 50.176-50.176 50.176 50.176 0 0 0-50.176 50.176z" fill="#F7D2BA" p-id="85558"></path><path d="M267.025067 499.473067a50.176 50.176 0 1 0 50.176-50.176 50.176 50.176 0 0 0-50.176 50.176z" fill="#F7D2BA" p-id="85559"></path><path d="M512 248.081067a199.953067 199.953067 0 0 1 194.798933 204.8v79.086933a219.409067 219.409067 0 0 1-194.798933 204.8 215.586133 215.586133 0 0 1-194.833067-204.8V452.608A199.953067 199.953067 0 0 1 512 248.081067z" fill="#FBE4D4" p-id="85560"></path><path d="M449.024 158.72a249.173333 249.173333 0 0 0-151.313067 58.026667c29.696 15.872 55.057067 23.04 9.728 105.233066l51.2-25.6s43.793067-30.481067 31.505067 8.704c-14.097067 43.008 57.582933-36.625067 59.733333-72.704a646.724267 646.724267 0 0 0-0.853333-73.659733z" fill="#284778" p-id="85561"></path><path d="M520.704 144.145067h-2.286933c-150.766933 0-253.44 147.456-217.088 298.257066 10.990933 44.032 31.470933 33.006933 31.470933 18.432 0-18.670933 13.653333-100.590933 62.976-100.590933s68.846933 36.078933 122.88 37.376h2.833067c53.76-1.262933 74.478933-37.376 122.88-37.376s62.225067 82.944 62.225066 100.590933c0 13.653333 20.206933 25.6 30.958934-19.456 36.590933-149.777067-69.12-297.233067-216.849067-297.233066z m72.977067 591.872l-88.1664 88.1664 62.976 75.264 75.264-125.44z" fill="#284778" p-id="85562"></path><path d="M430.353067 735.982933l88.1664 88.1664-62.976 75.093334-75.264-125.44z" fill="#284778" p-id="85563"></path></svg>