<?xml version="1.0" standalone="no"?><!DOCTYPE svg PUBLIC "-//W3C//DTD SVG 1.1//EN" "http://www.w3.org/Graphics/SVG/1.1/DTD/svg11.dtd"><svg t="1732511250604" class="icon" viewBox="0 0 1024 1024" version="1.1" xmlns="http://www.w3.org/2000/svg" p-id="7577" xmlns:xlink="http://www.w3.org/1999/xlink" width="200" height="200"><path d="M128 128m128 0l85.333333 0q128 0 128 128l0 85.333333q0 128-128 128l-85.333333 0q-128 0-128-128l0-85.333333q0-128 128-128Z" fill="#000000" p-id="7578"></path><path d="M128 554.666667m128 0l85.333333 0q128 0 128 128l0 85.333333q0 128-128 128l-85.333333 0q-128 0-128-128l0-85.333333q0-128 128-128Z" fill="#000000" p-id="7579"></path><path d="M554.666667 128m128 0l85.333333 0q128 0 128 128l0 85.333333q0 128-128 128l-85.333333 0q-128 0-128-128l0-85.333333q0-128 128-128Z" fill="#9F9F9F" p-id="7580"></path><path d="M554.666667 554.666667m128 0l85.333333 0q128 0 128 128l0 85.333333q0 128-128 128l-85.333333 0q-128 0-128-128l0-85.333333q0-128 128-128Z" fill="#000000" p-id="7581"></path></svg>