<?xml version="1.0" standalone="no"?><!DOCTYPE svg PUBLIC "-//W3C//DTD SVG 1.1//EN" "http://www.w3.org/Graphics/SVG/1.1/DTD/svg11.dtd"><svg t="1735878098062" class="icon" viewBox="0 0 1024 1024" version="1.1" xmlns="http://www.w3.org/2000/svg" p-id="21533" xmlns:xlink="http://www.w3.org/1999/xlink" width="200" height="200"><path d="M904 739.5H120c-30.93 0-56-25.07-56-56v-504c0-30.93 25.07-56 56-56h784c30.93 0 56 25.07 56 56v504c0 30.93-25.07 56-56 56z" fill="#E1F5FF" p-id="21534"></path><path d="M680 879.5H344l70-140h196z" fill="#FFD600" p-id="21535"></path><path d="M764 900.5H260c-11.59 0-21-9.41-21-21s9.41-21 21-21h504c11.59 0 21 9.41 21 21s-9.41 21-21 21z" fill="#313FA0" p-id="21536"></path><path d="M904 739.5H120c-30.93 0-56-25.07-56-56v-84h896v84c0 30.93-25.07 56-56 56z" fill="#8C9EFF" p-id="21537"></path><path d="M512 672.81m-21 0a21 21 0 1 0 42 0 21 21 0 1 0-42 0Z" fill="#FFFFFF" p-id="21538"></path><path d="M406.31 434.54c-5.37 0-10.75-2.05-14.85-6.15-8.2-8.2-8.2-21.49 0-29.7l204.97-204.97c8.2-8.2 21.49-8.2 29.7 0s8.2 21.49 0 29.7L421.16 428.39c-4.1 4.1-9.47 6.15-14.85 6.15zM464.12 539.66c-5.37 0-10.75-2.05-14.85-6.15-8.2-8.2-8.2-21.49 0-29.7l91.98-91.98c8.2-8.2 21.49-8.2 29.7 0s8.2 21.49 0 29.7l-91.98 91.98a20.96 20.96 0 0 1-14.85 6.15z" fill="#313FA0" p-id="21539"></path></svg>