<?xml version="1.0" standalone="no"?><!DOCTYPE svg PUBLIC "-//W3C//DTD SVG 1.1//EN" "http://www.w3.org/Graphics/SVG/1.1/DTD/svg11.dtd"><svg t="1734954459467" class="icon" viewBox="0 0 1024 1024" version="1.1" xmlns="http://www.w3.org/2000/svg" p-id="17171" xmlns:xlink="http://www.w3.org/1999/xlink" width="200" height="200"><path d="M508.215302 834.571696l69.739341 0c32.972972 0 59.815317-27.999704 59.815317-62.437028L637.76996 124.511805c0-34.4363-26.823925-62.437028-59.815317-62.437028l-69.739341 0c-32.972972 0-59.818387 28.000728-59.818387 62.437028l0 647.622864C448.396915 806.570969 475.232097 834.571696 508.215302 834.571696z" fill="#020202" p-id="17172"></path><path d="M763.618203 831.501778l69.740364 0c32.981159 0 59.815317-27.709085 59.815317-61.789275L893.173884 379.083781c0-34.079166-26.834158-61.788252-59.815317-61.788252l-69.740364 0c-32.971949 0-59.806107 27.710109-59.806107 61.788252l0 390.628722C703.811072 803.792693 730.636021 831.501778 763.618203 831.501778z" fill="#020202" p-id="17173"></path><path d="M254.778172 833.54839l71.267137 0c33.685193 0 61.099566-27.786857 61.089333-61.963237L387.134643 505.570567c0-34.154891-27.40414-61.963237-61.089333-61.963237l-71.267137 0c-33.685193 0-61.090357 27.807323-61.090357 61.963237l0 266.014586C193.687816 805.76051 221.091956 833.54839 254.778172 833.54839z" fill="#020202" p-id="17174"></path><path d="M901.321448 897.391441 163.624103 897.391441c-23.779589 0-43.115983-20.996197-43.115983-46.821375L120.508119 288.197818c0-17.237593-12.880355-31.214932-28.764114-31.214932-15.874549 0-28.744671 13.977339-28.744671 31.214932l0 562.351781c0 60.241013 45.138036 109.25124 100.616582 109.25124L901.321448 959.800839c15.873526 0 28.743648-13.977339 28.743648-31.215956C930.065096 911.348314 917.194974 897.391441 901.321448 897.391441z" fill="#020202" p-id="17175"></path></svg>