<?xml version="1.0" standalone="no"?><!DOCTYPE svg PUBLIC "-//W3C//DTD SVG 1.1//EN" "http://www.w3.org/Graphics/SVG/1.1/DTD/svg11.dtd"><svg t="1735107158399" class="icon" viewBox="0 0 1024 1024" version="1.1" xmlns="http://www.w3.org/2000/svg" p-id="88636" xmlns:xlink="http://www.w3.org/1999/xlink" width="200" height="200"><path d="M512 1024C229.2224 1024 0 794.7776 0 512S229.2224 0 512 0s512 229.2224 512 512-229.2224 512-512 512z m120.32-657.0752h-238.9248A42.24 42.24 0 0 0 350.72 409.6v187.7248A42.24 42.24 0 0 0 393.3952 640h74.24l39.2448 40.1152c1.7152 1.6896 3.4048 2.56 5.9648 2.56s4.2752-0.8704 5.9904-2.56L558.9248 640H632.32c23.04 0 42.6752-18.7648 42.6752-42.6752V409.6c0-23.04-19.6352-42.6752-42.6752-42.6752z m-201.3952 153.6A21.12 21.12 0 0 1 409.6 499.2c0-11.9552 9.3952-21.3248 21.3248-21.3248 11.9552 0 21.3504 9.3696 21.3504 21.3248a21.12 21.12 0 0 1-21.3504 21.3248z m81.92 0a21.12 21.12 0 0 1-21.3248-21.3248c0-11.9552 9.3952-21.3248 21.3248-21.3248 11.9552 0 21.3504 9.3696 21.3504 21.3248a21.12 21.12 0 0 1-21.3504 21.3248z m80.2304 0a21.12 21.12 0 0 1-21.3504-21.3248c0-11.9552 9.3952-21.3248 21.3504-21.3248 11.9296 0 21.3248 9.3696 21.3248 21.3248a21.12 21.12 0 0 1-21.3248 21.3248z" fill="#45E3B3" p-id="88637"></path></svg>