<?xml version="1.0" standalone="no"?><!DOCTYPE svg PUBLIC "-//W3C//DTD SVG 1.1//EN" "http://www.w3.org/Graphics/SVG/1.1/DTD/svg11.dtd"><svg t="1735878831154" class="icon" viewBox="0 0 1024 1024" version="1.1" xmlns="http://www.w3.org/2000/svg" p-id="44668" xmlns:xlink="http://www.w3.org/1999/xlink" width="200" height="200"><path d="M229.797584 571.297152V162.842751c0-67.172635 54.959428-122.132063 122.132063-122.132063h320.144777c67.172635 0 122.132063 54.959428 122.132063 122.132063v408.454401" fill="#FF91B5" p-id="44669"></path><path d="M672.074424 40.710688h-87.312212c56.836191 0 91.513555 49.125587 97.546879 116.143521 10.6662 118.525096-432.156164 276.832677-96.321487 276.832677 121.594682 0-218.571611 127.558798-346.069343 127.558797-3.383058 0-6.757974-0.040711-10.120677-0.101776v10.153245H794.206487V162.842751c0-67.172635-54.959428-122.132063-122.132063-122.132063z" fill="#E0809F" p-id="44670"></path><path d="M223.621772 501.405044c0-318.764685 107.284875-454.608108 416.857087-440.339012l-288.54107-10.336444c-67.172635 0-122.132063 54.959428-122.132063 122.132063v408.458473a517.616039 517.616039 0 0 1-6.183954-79.91508z" fill="#FFBDD2" opacity=".55" p-id="44671"></path><path d="M237.235426 895.179171h553.665354v40.710688h-553.665354z" fill="#6E6E96" p-id="44672"></path><path d="M702.697004 754.552242h88.203776v249.092414h-88.203776zM233.131789 754.552242h88.207847v249.092414H233.131789z" fill="#FFCA5F" p-id="44673"></path><path d="M275.230711 874.343441c15.641046 0 30.390528 34.85242 43.426091 46.039717v-151.574033H230.448955v152.742429c13.361248-11.932303 28.599258-47.208114 44.781756-47.208113zM744.791855 874.343441c15.641046 0 30.390528 34.85242 43.430161 46.039717v-151.574033h-88.211918v152.742429c13.361248-11.932303 28.599258-47.208114 44.781757-47.208113z" fill="#E6B656" opacity=".59" p-id="44674"></path><path d="M277.913545 803.482418c15.641046 0 30.390528 34.85242 43.426091 46.039716v-94.96175H233.131789v96.126076c13.361248-11.928232 28.599258-47.204042 44.781756-47.204042zM747.474689 803.482418c15.645117 0 30.394599 34.85242 43.426091 46.039716v-94.96175h-88.207848v96.126076c13.361248-11.928232 28.599258-47.204042 44.781757-47.204042z" fill="#DBAE52" p-id="44675"></path><path d="M888.573862 632.717367v121.834875H135.426138v-121.834875s34.941983-93.190835 372.690062-93.190835c357.167077 0.016284 380.457661 93.190835 380.457662 93.190835z" fill="#FF91B5" p-id="44676"></path><path d="M603.102377 542.013955c345.18185 122.376327-60.813625 173.940484-300.762419 173.940484-58.668172 0-114.893703-3.84716-166.91382-10.902322v49.500125h753.147724v-121.834875s-145.613988-115.288597-285.471485-90.703412z" fill="#E0809F" p-id="44677"></path><path d="M868.218518 632.717367v121.834875a20.355344 20.355344 0 0 1 20.355344-20.355344H135.426138a20.355344 20.355344 0 0 1 20.355344 20.355344v-121.834875c0 2.442641-0.439675 4.856785-1.2946 7.148797-0.215767 0.574021-0.350112 0.850853-0.350112 0.854924 0.390823-0.810143 42.823572-80.831071 353.97943-80.83107 321.223611 0.008142 360.517566 76.987982 360.712978 77.773697-0.407107-1.620285-0.61066-3.281281-0.61066-4.946348z m-360.102318-113.538037c-143.012575 0-251.168659 16.296488-321.463803 48.433505C134.13561 591.619928 115.070794 619.70216 115.070794 632.717367v121.834875a20.355344 20.355344 0 0 0 20.355344 20.355344h753.147724a20.355344 20.355344 0 0 0 20.355344-20.355344v-121.834875c0-1.665067-0.203553-3.317921-0.602519-4.938207-1.367879-5.471516-11.04481-34.070775-67.506462-60.133756-69.680413-32.157372-181.614449-48.462003-332.704025-48.466074z" fill="#6E6E96" p-id="44678"></path><path d="M790.90078 983.289312h-88.203776l20.355343 20.355344v-249.092414l-20.355343 20.355344h88.203776l-20.355344-20.355344v249.092414l20.355344-20.355344z m0-249.092414h-108.55912v289.803102h128.914463v-289.803102h-20.355343zM321.339636 983.289312H233.131789l20.355344 20.355344v-249.092414l-20.355344 20.355344h88.207847l-20.355344-20.355344v249.092414l20.355344-20.355344z m0-249.092414H212.776445v289.803102h128.918535v-289.803102h-20.355344zM250.152927 571.297152V162.842751c0-56.119683 45.657036-101.776719 101.77672-101.776719h320.144777c56.119683 0 101.776719 45.657036 101.77672 101.776719v408.454401h40.710687V162.842751c0-78.567556-63.919851-142.487407-142.487407-142.487407H351.929647c-78.567556 0-142.487407 63.919851-142.487407 142.487407v408.454401h40.710687z" fill="#6E6E96" p-id="44679"></path></svg>