<?xml version="1.0" standalone="no"?><!DOCTYPE svg PUBLIC "-//W3C//DTD SVG 1.1//EN" "http://www.w3.org/Graphics/SVG/1.1/DTD/svg11.dtd"><svg t="1732511116117" class="icon" viewBox="0 0 1024 1024" version="1.1" xmlns="http://www.w3.org/2000/svg" p-id="7394" xmlns:xlink="http://www.w3.org/1999/xlink" width="200" height="200"><path d="M761.051429 578.194286l177.005714 177.005714-177.005714 177.005714-53.101715-53.101714 85.845334-85.869714h-231.448381v-75.093334H794.819048l-86.844953-86.844952 53.101715-53.101714zM902.095238 365.714286l-0.024381 280.015238-141.019428-141.019429-122.051048 122.075429 38.083048 38.083047h-163.498667v172.617143h162.499048L639.024762 874.544762 666.477714 902.095238 195.047619 902.095238a73.142857 73.142857 0 0 1-73.142857-73.142857V365.714286h780.190476z m-438.857143 73.142857h-195.047619v73.142857h195.047619v-73.142857zM765.123048 121.904762a73.142857 73.142857 0 0 1 65.414095 40.423619l63.829333 127.634286 1.170286 2.608762H131.218286l62.512762-129.340953A73.142857 73.142857 0 0 1 259.584 121.904762h505.539048z" p-id="7395"></path></svg>