<?xml version="1.0" standalone="no"?><!DOCTYPE svg PUBLIC "-//W3C//DTD SVG 1.1//EN" "http://www.w3.org/Graphics/SVG/1.1/DTD/svg11.dtd"><svg t="1735126694953" class="icon" viewBox="0 0 1024 1024" version="1.1" xmlns="http://www.w3.org/2000/svg" p-id="147036" xmlns:xlink="http://www.w3.org/1999/xlink" width="200" height="200"><path d="M886.63 449.37l-96-96c-6.25-6.25-14.44-9.37-22.63-9.37h-64v-64c0-35.35-28.65-64-64-64H192c-35.35 0-64 28.65-64 64v416c0 17.67 14.33 32 32 32h100.65c13.77 46.26 56.62 80 107.35 80s93.58-33.74 107.35-80h73.29c13.77 46.26 56.62 80 107.35 80s93.58-33.74 107.35-80H864c17.67 0 32-14.33 32-32V472c0-8.19-3.12-16.38-9.37-22.63zM405.12 700.05c-1.83 17.31-15.75 31.23-33.06 33.06-23.76 2.52-43.69-17.41-41.17-41.17 1.83-17.31 15.75-31.23 33.06-33.06 23.76-2.52 43.69 17.41 41.17 41.17zM512 472v32c0 17.67-14.33 32-32 32H352c-17.67 0-32-14.33-32-32s14.33-32 32-32h96v-96c0-17.67 14.33-32 32-32s32 14.33 32 32v96z m181.12 228.05c-1.83 17.31-15.75 31.23-33.06 33.06-23.76 2.52-43.69-17.41-41.17-41.17 1.83-17.31 15.75-31.23 33.06-33.06 23.76-2.52 43.69 17.41 41.17 41.17z" p-id="147037" fill="#ffffff"></path></svg>