<?xml version="1.0" standalone="no"?><!DOCTYPE svg PUBLIC "-//W3C//DTD SVG 1.1//EN" "http://www.w3.org/Graphics/SVG/1.1/DTD/svg11.dtd"><svg t="1732508854980" class="icon" viewBox="0 0 1024 1024" version="1.1" xmlns="http://www.w3.org/2000/svg" p-id="30973" xmlns:xlink="http://www.w3.org/1999/xlink" width="200" height="200"><path d="M512 958.326255c247.255337 0 447.696462-200.441125 447.696462-447.696462s-200.441125-447.696462-447.696462-447.696462-447.696462 200.441125-447.696462 447.696462S264.74364 958.326255 512 958.326255zM512 217.681788c35.32146 0 63.956637 28.635177 63.956637 63.956637 0 35.323507-28.635177 63.956637-63.956637 63.956637s-63.956637-28.633131-63.956637-63.956637C448.043363 246.316965 476.67854 217.681788 512 217.681788zM448.043363 510.629793c0-35.32146 28.635177-63.956637 63.956637-63.956637s63.956637 28.635177 63.956637 63.956637l0 223.848231c0 35.323507-28.635177 63.956637-63.956637 63.956637s-63.956637-28.633131-63.956637-63.956637L448.043363 510.629793z" fill="#e6e6e6" p-id="30974"></path></svg>