<?xml version="1.0" standalone="no"?><!DOCTYPE svg PUBLIC "-//W3C//DTD SVG 1.1//EN" "http://www.w3.org/Graphics/SVG/1.1/DTD/svg11.dtd"><svg t="1732511172122" class="icon" viewBox="0 0 1024 1024" version="1.1" xmlns="http://www.w3.org/2000/svg" p-id="10124" xmlns:xlink="http://www.w3.org/1999/xlink" width="200" height="200"><path d="M819.2 128H204.8c-84.48 0-153.6 69.12-153.6 153.6v460.8c0 84.48 69.12 153.6 153.6 153.6h614.4c84.48 0 153.6-69.12 153.6-153.6V281.6c0-84.48-69.12-153.6-153.6-153.6z m-537.6 199.68c30.72 0 56.32 25.6 56.32 56.32 0 30.72-25.6 56.32-56.32 56.32-30.72 0-56.32-25.6-56.32-56.32 0-30.72 25.6-56.32 56.32-56.32z m496.64 71.68c-30.72 125.44-140.8 204.8-253.44 204.8-53.76 0-97.28 10.24-130.56 28.16-30.72 17.92-51.2 43.52-61.44 87.04-7.68 28.16-33.28 43.52-61.44 38.4-28.16-7.68-43.52-33.28-38.4-61.44 15.36-71.68 56.32-122.88 112.64-153.6 51.2-30.72 115.2-40.96 179.2-40.96 66.56 0 135.68-48.64 156.16-128 5.12-28.16 33.28-46.08 61.44-38.4 28.16 5.12 43.52 33.28 35.84 64z" fill="#000000" p-id="10125"></path></svg>