<?xml version="1.0" standalone="no"?><!DOCTYPE svg PUBLIC "-//W3C//DTD SVG 1.1//EN" "http://www.w3.org/Graphics/SVG/1.1/DTD/svg11.dtd"><svg t="1735887859183" class="icon" viewBox="0 0 1033 1024" version="1.1" xmlns="http://www.w3.org/2000/svg" p-id="37259" xmlns:xlink="http://www.w3.org/1999/xlink" width="201.7578125" height="200"><path d="M840.192 438.272l-480.256 287.232c-8.192 5.632-19.968 3.072-25.088-5.12-0.512-0.512-0.512-1.024-1.024-1.536L148.48 408.576c-5.632-8.192-3.072-19.968 5.12-25.088 0.512-0.512 1.024-0.512 1.536-1.024l480.256-286.72c8.192-5.632 19.968-3.072 25.088 5.12 0.512 0.512 0.512 1.024 1.024 1.536l185.344 310.272c5.632 8.192 3.072 19.968-5.12 25.088-0.512 0.512-1.024 0.512-1.536 1.024v-0.512z" fill="#4DD1FF" p-id="37260"></path><path d="M180.224 461.312l513.024-306.688 76.288 127.488L256.512 588.8 180.224 461.312z" fill="#008BD8" p-id="37261"></path><path d="M877.056 977.92H98.304c-20.992 0-37.888-16.896-37.888-37.888V379.904c0-20.992 16.896-37.888 37.888-37.888h778.752c20.992 0 37.888 16.896 37.888 37.888v560.128c0 20.992-16.896 37.888-37.888 37.888z" fill="#00A1E9" p-id="37262"></path><path d="M685.056 771.072h239.104c10.24 0 18.432-8.192 18.432-18.432v-184.832c0-10.24-8.192-18.432-18.432-18.432h-239.104c-61.44 0-111.104 49.664-111.104 111.104s49.664 111.104 111.104 111.104v-0.512z" fill="#D6F2FC" p-id="37263"></path><path d="M630.784 659.968c0 26.112 20.992 47.616 47.616 47.616 26.112 0 47.616-20.992 47.616-47.616 0-26.112-20.992-47.616-47.616-47.616-26.624 0-47.616 20.992-47.616 47.616z" fill="#00A1E9" p-id="37264"></path><path d="M98.304 341.504c-20.992 0-37.888 16.896-37.888 37.888v560.128c0 20.992 16.896 37.888 37.888 37.888h120.32V341.504H98.304z" fill="#008BD8" p-id="37265"></path><path d="M994.816 438.784c-21.504 0-38.912 17.408-38.912 38.912 0 21.504 17.408 38.912 38.912 38.912 21.504 0 38.912-17.408 38.912-38.912 0-21.504-17.408-38.912-38.912-38.912z m0 57.856c-10.24 0-18.432-8.192-18.432-18.432s8.192-18.432 18.432-18.432 18.432 8.192 18.432 18.432-8.192 18.432-18.432 18.432zM180.224 155.136c-21.504 0-38.4 17.408-38.4 38.4 0 21.504 17.408 38.4 38.4 38.4s38.4-16.896 38.4-38.4c0-20.992-16.896-38.4-38.4-38.4z m0 52.736c-8.192 0-14.336-6.656-14.336-14.336 0-8.192 6.656-14.336 14.336-14.336 8.192 0 14.336 6.656 14.336 14.336 0 8.192-6.144 14.336-14.336 14.336z" fill="#00A1E9" p-id="37266"></path><path d="M724.992 61.44c0 9.216 7.68 16.384 16.384 16.384s16.384-7.68 16.384-16.384-7.68-16.384-16.384-16.384c-8.704-0.512-16.384 7.168-16.384 16.384zM458.752 2.56c-3.584 20.992-18.944 38.4-39.424 45.056-1.536 0.512-3.072 2.048-2.56 4.096 0.512 1.024 1.024 2.048 2.56 2.56 19.968 5.12 34.816 20.992 39.424 41.472 0.512 1.536 2.56 2.56 4.608 2.048 1.024-0.512 1.536-1.024 2.048-2.048 5.632-19.456 21.504-35.328 40.96-40.96 1.536-0.512 2.56-2.56 2.048-4.096-0.512-1.024-1.024-1.536-2.048-2.048-20.48-7.168-36.352-24.576-41.472-45.568-1.024-1.536-3.072-2.048-4.608-1.024-1.024-1.024-1.536-0.512-1.536 0.512z m436.736 147.968c-2.048 12.288-11.264 22.528-23.04 26.112-1.024 0.512-1.536 1.536-1.024 2.56 0 0.512 0.512 1.024 1.024 1.024 11.776 3.072 20.48 12.288 23.04 24.064 0.512 1.024 1.536 1.536 2.56 1.536 0.512 0 1.024-0.512 1.536-1.536 3.584-11.264 12.288-20.48 24.064-23.552 1.024-0.512 1.536-1.536 1.024-2.56 0-0.512-0.512-1.024-1.024-1.024-11.776-4.096-20.992-14.336-24.064-26.624-0.512-1.024-1.536-1.536-2.56-1.536s-1.536 0.512-1.536 1.536z" fill="#4DD1FF" p-id="37267"></path><path d="M0 865.792c0 87.04 70.656 158.208 158.208 158.208 87.552 0 158.208-70.656 158.208-158.208 0-87.552-70.656-158.208-158.208-158.208h-0.512C70.656 707.584 0 778.24 0 865.792z" fill="#D6F2FC" p-id="37268"></path><path d="M167.936 946.688l2.048 5.632c3.584 9.216 14.336 13.824 23.552 10.24 9.216-3.584 13.824-13.312 10.752-22.528l-2.56-7.168c7.168-5.12 13.312-11.776 16.896-19.456 5.12-11.264 5.632-24.576 1.536-36.352-9.216-25.6-36.864-38.912-62.464-29.696h-0.512l-11.776 3.584c-6.656 0.512-12.288-4.608-12.8-11.264 0-4.096 1.536-8.192 4.608-10.24l23.04-8.192c3.072 9.728 13.312 14.848 23.04 11.776s14.848-13.312 11.776-23.04v-1.024c-6.656-18.432-27.136-28.16-46.08-22.016l-3.072-6.656c-3.072-9.728-13.312-14.848-23.04-11.776-9.728 3.072-14.848 13.312-11.776 23.04v1.024l2.56 7.68c-22.016 15.36-27.648 45.568-12.288 67.584 12.288 17.92 34.816 25.088 55.296 18.432l11.264-4.096c6.144-2.56 13.312 1.024 15.872 7.168 1.024 3.072 1.024 6.144 0 9.216-1.024 3.072-3.584 5.12-6.656 6.144l-22.016 7.68c-3.584-9.728-14.336-14.336-24.064-10.752s-14.336 14.336-10.752 24.064c8.192 17.92 28.672 27.648 47.616 20.992z" fill="#00A1E9" p-id="37269"></path><path d="M656.384 662.016c0 12.288 9.728 22.016 22.016 22.016s22.016-9.728 22.016-22.016-9.728-22.016-22.016-22.016-22.016 9.728-22.016 22.016z" fill="#D6F2FC" p-id="37270"></path></svg>