<?xml version="1.0" standalone="no"?><!DOCTYPE svg PUBLIC "-//W3C//DTD SVG 1.1//EN" "http://www.w3.org/Graphics/SVG/1.1/DTD/svg11.dtd"><svg t="1735888144670" class="icon" viewBox="0 0 1024 1024" version="1.1" xmlns="http://www.w3.org/2000/svg" p-id="77136" xmlns:xlink="http://www.w3.org/1999/xlink" width="200" height="200"><path d="M499.5 68.2H183.1c-65.4 0-118.5 53-118.5 118.5v649.9c0 65.4 53 118.5 118.5 118.5h483.3c65.4 0 118.5-53 118.5-118.5V350.5c0-31.8-12.8-62.3-35.5-84.6L582.5 102.1c-22.2-21.7-52-33.9-83-33.9z" fill="#FAB001" p-id="77137"></path><path d="M105.1 225c0-65.4 53-118.5 118.5-118.5H540c24.5 0 48.2 7.7 68 21.6l-34.4-33.8c-20.9-16.8-47-26-74.1-26H183.1c-65.4 0-118.5 53-118.5 118.5v649.9c0 20.1 5 39 13.9 55.6 9.3 4.6 19.4 7.8 29.9 9.9-2.1-8.8-3.3-17.8-3.3-27.2V225z" fill="#F9E48A" p-id="77138"></path><path d="M613.9 904.4c65.4 0 118.5-53 118.5-118.5v-486c0-31.8-12.8-62.3-35.5-84.6L608 128c-19.8-13.9-43.5-21.6-68-21.6H223.6c-65.4 0-118.5 53-118.5 118.5v649.9c0 9.4 1.2 18.5 3.3 27.2 7.2 1.4 14.6 2.3 22.2 2.3h483.3z" fill="#FECE0A" p-id="77139"></path><path d="M492.9 376.6H179.7c-1.5 0-2.7-1.2-2.7-2.7v-48.5c0-1.5 1.2-2.7 2.7-2.7h313.2c1.5 0 2.7 1.2 2.7 2.7v48.5c0 1.5-1.2 2.7-2.7 2.7zM492.9 550.7H179.7c-1.5 0-2.7-1.2-2.7-2.7v-48.5c0-1.5 1.2-2.7 2.7-2.7h313.2c1.5 0 2.7 1.2 2.7 2.7V548c0 1.5-1.2 2.7-2.7 2.7zM492.9 710.3H179.7c-1.5 0-2.7-1.2-2.7-2.7V659c0-1.5 1.2-2.7 2.7-2.7h313.2c1.5 0 2.7 1.2 2.7 2.7v48.5c0 1.6-1.2 2.8-2.7 2.8z" fill="#FFFFFF" p-id="77140"></path><path d="M817.6 241.3L490.2 798.4c-2.4 4-3.6 8.7-3.7 13.3l-0.5 116.6c-0.1 20.4 21.9 33.3 39.7 23.3l101.5-57.2c4.1-2.3 7.5-5.7 9.9-9.7l327.3-557.1c7.4-12.7 3.2-29-9.5-36.4L854 231.8c-12.7-7.4-29-3.2-36.4 9.5z" fill="#39AFDA" p-id="77141"></path><path d="M614.8 856.4l327.3-557.1c2.5-4.3 3.6-8.9 3.6-13.5l-91.7-54c-12.7-7.4-29-3.2-36.4 9.5L490.2 798.4c-2.4 4-3.6 8.6-3.7 13.3l-0.5 114.5c5.7 1 11.7 0.3 17.4-2.9l101.5-57.2c4.1-2.3 7.5-5.7 9.9-9.7z" fill="#9CE4F3" p-id="77142"></path><path d="M614.8 856.4l327.3-557.1c2.5-4.3 3.6-8.9 3.6-13.5l-91.7-54c-12.7-7.4-29-3.2-36.4 9.5L490.2 798.4c-2.4 4-3.6 8.6-3.7 13.3l-0.5 114.5c5.7 1 11.7 0.3 17.4-2.9l101.5-57.2c4.1-2.3 7.5-5.7 9.9-9.7z" fill="#9CE4F3" p-id="77143"></path><path d="M864.6 281.5c-12.7-7.4-29.3-2.7-37.1 10.7L486.3 872.9l-0.3 53.3c5.7 1 11.7 0.3 17.4-2.9l101.5-57.2c4.1-2.3 7.5-5.7 9.9-9.7L930 319.9l-65.4-38.4z" fill="#52C5F8" p-id="77144"></path></svg>