<?xml version="1.0" standalone="no"?><!DOCTYPE svg PUBLIC "-//W3C//DTD SVG 1.1//EN" "http://www.w3.org/Graphics/SVG/1.1/DTD/svg11.dtd"><svg t="1735887939256" class="icon" viewBox="0 0 1024 1024" version="1.1" xmlns="http://www.w3.org/2000/svg" p-id="45760" xmlns:xlink="http://www.w3.org/1999/xlink" width="200" height="200"><path d="M0 0h1024v1024H0V0z" fill="#202425" opacity=".01" p-id="45761"></path><path d="M68.266667 375.466667a34.133333 34.133333 0 0 1 34.133333-34.133334h819.2a34.133333 34.133333 0 0 1 34.133333 34.133334v443.733333a136.533333 136.533333 0 0 1-136.533333 136.533333H204.8a136.533333 136.533333 0 0 1-136.533333-136.533333V375.466667z" fill="#FF7744" p-id="45762"></path><path d="M787.114667 475.818667a51.2 51.2 0 0 1 0 72.362666l-273.066667 273.066667a51.2 51.2 0 0 1-72.362667 0l-170.666666-170.666667a51.2 51.2 0 0 1 72.362666-72.362666L477.866667 712.635733l236.885333-236.885333a51.2 51.2 0 0 1 72.362667 0z" fill="#FFFFFF" p-id="45763"></path><path d="M268.356267 68.266667a102.4 102.4 0 0 0-81.169067 39.936L76.3904 252.245333A34.133333 34.133333 0 0 0 103.458133 307.2H460.8a17.066667 17.066667 0 0 0 17.066667-17.066667v-204.8a17.066667 17.066667 0 0 0-17.066667-17.066666H268.356267z m487.287466 0a102.4 102.4 0 0 1 81.169067 39.936l110.7968 144.042666A34.133333 34.133333 0 0 1 920.541867 307.2H563.2a17.066667 17.066667 0 0 1-17.066667-17.066667v-204.8a17.066667 17.066667 0 0 1 17.066667-17.066666h192.443733z" fill="#FFAA44" p-id="45764"></path></svg>