<?xml version="1.0" standalone="no"?><!DOCTYPE svg PUBLIC "-//W3C//DTD SVG 1.1//EN" "http://www.w3.org/Graphics/SVG/1.1/DTD/svg11.dtd"><svg t="1732582091111" class="icon" viewBox="0 0 1024 1024" version="1.1" xmlns="http://www.w3.org/2000/svg" p-id="38138" xmlns:xlink="http://www.w3.org/1999/xlink" width="200" height="200"><path d="M748.8 708.25a32 32 0 0 1-6.4-44.8 253.44 253.44 0 0 0 0-302.9 32 32 0 0 1 51.2-38.4 318.72 318.72 0 0 1 0 379.7 31.54 31.54 0 0 1-25.6 12.8 32.41 32.41 0 0 1-19.2-6.4z" fill="#006CFF" p-id="38139"></path><path d="M826.88 814.95a32 32 0 0 1-6.4-44.8c113.92-151.91 113.92-364.39 0-516.3a32 32 0 0 1 51.2-38.4c130.97 174.54 130.97 418.56 0 593.1a30.976 30.976 0 0 1-25.6 12.8 32.41 32.41 0 0 1-19.2-6.4z" fill="#006CFF" p-id="38140"></path><path d="M672 707.84c0 73.37-26.47 128.41-73.83 154.88a128 128 0 0 1-62.72 15.77c-34.1 0-70.81-11.52-108.34-34.97l-124.62-78.08a55.296 55.296 0 0 0-28.16-8.09h-39.68v-490.7h39.68c9.83 0 19.66-2.97 28.16-8.09l124.62-78.08c62.26-38.81 123.29-45.67 171.06-19.2C645.53 187.75 672 242.79 672 316.16v391.68z" fill="#006CFF" opacity=".4" p-id="38141"></path><path d="M234.65 757.35h-21.3c-103.27 0-160-56.78-160-160v-170.7c0-103.22 56.73-160 160-160h21.3v490.7z" fill="#006CFF" p-id="38142"></path></svg>