<?xml version="1.0" standalone="no"?><!DOCTYPE svg PUBLIC "-//W3C//DTD SVG 1.1//EN" "http://www.w3.org/Graphics/SVG/1.1/DTD/svg11.dtd"><svg t="1732580689074" class="icon" viewBox="0 0 1024 1024" version="1.1" xmlns="http://www.w3.org/2000/svg" p-id="15758" xmlns:xlink="http://www.w3.org/1999/xlink" width="200" height="200"><path d="M768.524099 1024H255.599132C115.127495 1024 0.061615 908.93412 0.061615 768.462483V255.537517C0.061615 115.06588 115.127495 0 255.599132 0H768.40077c140.594966 0 255.537517 114.942551 255.537516 255.537517V768.339155c0.123329 140.594966-114.942551 255.660845-255.414187 255.660845z" fill="#2c2c2c" p-id="15759"></path><path d="M799.232999 633.29399l-52.784777-77.327231c-17.636035-25.775744-39.341925-56.114657-39.341924-87.316873v-97.429845c0-57.841262-27.132362-112.229315-73.257377-147.131398l-2.589907-1.973263c-78.683849-59.444538-162.547513-59.567867-241.354691-0.369987l-2.589908 1.973263c-46.618331 35.025413-73.99735 90.03011-73.99735 148.364687v73.750693c0 46.001686-25.899073 91.016741-51.428159 129.372034l-44.028423 66.227629c-6.536433 9.742984-3.823196 23.062508 5.919788 29.475611 3.45321 2.343249 7.523064 3.576539 11.716247 3.576538h541.783934c14.552812 0 26.392388-11.839576 26.392388-26.392388 0.246658-5.303143-1.356618-10.482958-4.439841-14.79947zM626.202528 689.531976c-13.566181 0-24.665783 9.003011-24.665783 20.102614 0 44.39841-44.275081 80.533783-98.786463 80.533783-54.511381 0-98.786463-36.135373-98.786463-80.533783 0-11.099603-11.099603-20.102614-24.665783-20.102614s-24.665783 9.003011-24.665784 20.102614c0 66.597615 66.474286 120.862339 148.11803 120.862339 81.643743 0 148.11803-54.264724 148.11803-120.862339 0-11.099603-11.099603-20.102614-24.665784-20.102614z" fill="#ffffff" p-id="15760"></path></svg>