<?xml version="1.0" standalone="no"?><!DOCTYPE svg PUBLIC "-//W3C//DTD SVG 1.1//EN"
        "http://www.w3.org/Graphics/SVG/1.1/DTD/svg11.dtd">
<svg t="1732501958848" class="icon" viewBox="0 0 1024 1024" version="1.1" xmlns="http://www.w3.org/2000/svg"
     p-id="11925" xmlns:xlink="http://www.w3.org/1999/xlink" width="200" height="200">
    <path d="M512 810.666667a298.666667 298.666667 0 1 1 298.666667-298.666667 298.666667 298.666667 0 0 1-298.666667 298.666667z"
          p-id="11926" fill="#e6e6e6"></path>
    <path d="M512 979.626667a41.386667 41.386667 0 0 1-42.666667-40.96v-3.413334a42.666667 42.666667 0 1 1 85.333334 0 44.117333 44.117333 0 0 1-42.666667 44.373334z m304.682667-120.32a43.818667 43.818667 0 0 1-30.293334-12.416l-5.546666-5.546667a42.666667 42.666667 0 1 1 60.16-60.16l5.546666 5.589333a42.666667 42.666667 0 0 1-29.866666 72.533334z m-609.28 0a43.818667 43.818667 0 0 1-30.293334-12.416 42.666667 42.666667 0 0 1 0-60.117334l5.546667-5.589333a42.666667 42.666667 0 0 1 60.16 60.16l-5.546667 5.546667a42.410667 42.410667 0 0 1-29.909333 12.416zM938.666667 554.666667h-3.413334a42.666667 42.666667 0 1 1 0-85.333334 44.117333 44.117333 0 0 1 44.373334 42.666667 41.386667 41.386667 0 0 1-40.96 42.666667zM88.746667 554.666667H85.333333a42.666667 42.666667 0 1 1 0-85.333334 44.117333 44.117333 0 0 1 44.373334 42.666667 41.386667 41.386667 0 0 1-40.96 42.666667z m722.346666-299.093334a43.946667 43.946667 0 0 1-30.293333-12.373333 42.666667 42.666667 0 0 1 0-60.117333l5.546667-5.589334a42.666667 42.666667 0 1 1 60.16 60.16l-5.546667 5.546667a41.984 41.984 0 0 1-29.866667 12.373333z m-598.186666 0a43.477333 43.477333 0 0 1-30.293334-12.373333l-5.546666-5.973333a42.666667 42.666667 0 1 1 60.16-60.16l5.546666 5.546666a42.666667 42.666667 0 0 1 0 60.16 41.386667 41.386667 0 0 1-29.866666 12.8zM512 129.706667a41.386667 41.386667 0 0 1-42.666667-40.96V85.333333a42.666667 42.666667 0 1 1 85.333334 0 44.117333 44.117333 0 0 1-42.666667 44.373334z"
          p-id="11927" fill="#e6e6e6"></path>
</svg>
