<?xml version="1.0" standalone="no"?><!DOCTYPE svg PUBLIC "-//W3C//DTD SVG 1.1//EN" "http://www.w3.org/Graphics/SVG/1.1/DTD/svg11.dtd"><svg t="1735879092572" class="icon" viewBox="0 0 1024 1024" version="1.1" xmlns="http://www.w3.org/2000/svg" p-id="120282" xmlns:xlink="http://www.w3.org/1999/xlink" width="200" height="200"><path d="M747.6 388.2l-11.1 508c-0.5 20.8-17.1 37.2-37.1 37.2h-2.2c-20.1 0-36.7-16.5-37.1-37.2L649 389c-15.7-16.7-25.6-41.2-25.6-68.6 0-50.3 33.4-91 74.6-91s74.6 40.8 74.6 91c-0.2 26.9-9.8 51.1-25 67.8z" fill="#FFFFFF" p-id="120283"></path><path d="M769.4 327.1c-2.5 39.3-35.6 71.3-74.1 71.3-38.4 0-69.6-31.9-69.6-71.3s33.6-73.5 72-74.6c54.9-1.6 74.7 27.7 71.7 74.6z" fill="#F27777" p-id="120284"></path><path d="M673.2 401.8h67.2v39.3h-67.2z" fill="#F8B1B1" p-id="120285"></path><path d="M673.2 439.8l1.2 485.7 28.7 2.3 29-12 5.3-28.3 6.7-442.7z" fill="#F27777" p-id="120286"></path><path d="M699.3 943.4h-2.2c-25.4 0-46.6-21.1-47.1-47l-11-503.5c-16.3-19-25.6-45.2-25.6-72.5 0-55.7 37.9-101 84.6-101s84.6 45.3 84.6 101c0 26.9-9 52.8-24.9 71.7l-11.1 504.3c-0.7 25.9-21.9 47-47.3 47z m-1.4-704.1c-35.6 0-64.6 36.4-64.6 81 0 23.8 8.3 46.3 22.9 61.8l2.6 2.8 0.1 3.8L670 895.9c0.3 15.1 12.5 27.4 27.2 27.4h2.2c14.6 0 26.8-12.3 27.2-27.4l11.2-511.7 2.5-2.8c14.1-15.4 22.2-37.7 22.2-61.1-0.1-44.6-29-81-64.6-81z" fill="#ED3D3D" p-id="120287"></path><path d="M657.9 384.2h80v20h-80zM657.8 431.2h80v20h-80z" fill="#ED3D3D" p-id="120288"></path><path d="M533.8 363.4L450.9 532v354c0 26.2-21.2 47.4-47.4 47.4h-19c-26.2 0-47.4-21.2-47.4-47.4V532.6l-83.4-170s-25.6-45.2-25.6-71.4c0-73.9 74.3-133.7 166-133.7s166 59.9 166 133.7c-0.1 26.6-26.3 72.2-26.3 72.2z" fill="#FFFFFF" p-id="120289"></path><path d="M455.5 528.5l84.2-171.3c6.9-12.1 24.9-47.6 24.9-67.2 0-68.2-70-123.7-156-123.7s-156 55.5-156 123.7c0 19.4 17.6 54.6 24.3 66.5l0.3 0.5 84.5 172.1" fill="#F27777" p-id="120290"></path><path d="M325.4 456l155.4-2.3-36.9 86.4h-79.5z" fill="#F8B1B1" p-id="120291"></path><path d="M359.4 545.4H442v381.2h-82.6z" fill="#F27777" p-id="120292"></path><path d="M403.5 943.4h-19c-31.7 0-57.4-25.8-57.4-57.4V535l-82.3-167.6c-3.4-6-26.8-48.5-26.8-76.1 0-38.8 18.6-75.2 52.3-102.4 33.1-26.7 77-41.4 123.7-41.4s90.5 14.7 123.7 41.4C551.4 216 570 252.4 570 291.2c0 27.9-23.9 70.7-27.4 76.9l-81.7 166.3V886c0 31.6-25.7 57.4-57.4 57.4zM394 167.5c-86 0-156 55.5-156 123.7 0 19.4 17.6 54.6 24.3 66.5l0.3 0.5 84.5 172.1V886c0 20.6 16.8 37.4 37.4 37.4h19c20.6 0 37.4-16.8 37.4-37.4V529.7l84.2-171.3c6.9-12.1 24.9-47.6 24.9-67.2 0-68.2-70-123.7-156-123.7z" fill="#ED3D3D" p-id="120293"></path><path d="M301.8 440.8h186v20h-186zM344 530.1h100v20H344z" fill="#ED3D3D" p-id="120294"></path><path d="M394.8 453.7c-5.5 0-10-4.5-10-10v-86c0-5.5 4.5-10 10-10s10 4.5 10 10v86c0 5.5-4.5 10-10 10zM434 453.4c-5.3-1.4-8.5-6.9-7.1-12.2l22.3-83.1c1.4-5.3 6.9-8.5 12.2-7.1 5.3 1.4 8.5 6.9 7.1 12.2l-22.3 83.1c-1.4 5.3-6.9 8.5-12.2 7.1zM328.1 351c-5.3 1.4-8.5 6.9-7.1 12.2l22.3 83.1c1.4 5.3 6.9 8.5 12.2 7.1 5.3-1.4 8.5-6.9 7.1-12.2l-22.3-83.1c-1.4-5.4-6.9-8.5-12.2-7.1z" fill="#ED3D3D" p-id="120295"></path></svg>