<?xml version="1.0" standalone="no"?><!DOCTYPE svg PUBLIC "-//W3C//DTD SVG 1.1//EN" "http://www.w3.org/Graphics/SVG/1.1/DTD/svg11.dtd"><svg t="1735126497544" class="icon" viewBox="0 0 1234 1024" version="1.1" xmlns="http://www.w3.org/2000/svg" p-id="140746" xmlns:xlink="http://www.w3.org/1999/xlink" width="241.015625" height="200"><path d="M121.949091 160.116364h429.614545a57.716364 57.716364 0 0 0 57.716364-57.716364v-46.545455A57.716364 57.716364 0 0 0 551.563636 0H121.949091a57.716364 57.716364 0 0 0-57.716364 57.716364v46.545454a57.250909 57.250909 0 0 0 57.250909 55.854546z" fill="#ffffff" p-id="140747"></path><path d="M478.021818 368.64a314.181818 314.181818 0 0 1 67.490909-59.112727v-43.287273a58.181818 58.181818 0 0 0-57.716363-57.716364H57.716364A58.181818 58.181818 0 0 0 0 266.24v46.545455a57.250909 57.250909 0 0 0 57.716364 55.854545h418.909091z" fill="#ffffff" p-id="140748"></path><path d="M64.232727 474.763636v46.545455a57.716364 57.716364 0 0 0 57.716364 55.854545h279.272727A321.163636 321.163636 0 0 1 443.578182 418.909091H121.949091a57.250909 57.250909 0 0 0-57.716364 55.854545z" fill="#ffffff" p-id="140749"></path><path d="M89.832727 625.105455a58.181818 58.181818 0 0 0-57.716363 58.181818v44.218182a57.716364 57.716364 0 0 0 57.716363 58.181818h388.189091a318.370909 318.370909 0 0 1-73.541818-160.581818z" fill="#ffffff" p-id="140750"></path><path d="M721.454545 304.407273a272.756364 272.756364 0 1 0 272.756364 272.756363 272.290909 272.290909 0 0 0-272.756364-272.756363z m108.916364 317.44a20.014545 20.014545 0 0 1 20.945455 19.083636 20.48 20.48 0 0 1-19.083637 21.410909h-79.127272v43.752727a28.858182 28.858182 0 0 1-30.254546 26.996364 28.858182 28.858182 0 0 1-26.996364-26.996364v-43.752727H619.054545a20.48 20.48 0 0 1-20.945454-19.549091 19.549091 19.549091 0 0 1 19.083636-20.945454H698.181818v-29.323637h-79.127273a20.014545 20.014545 0 0 1-20.945454-19.083636 20.48 20.48 0 0 1 19.083636-21.410909H698.181818v-22.341818l-77.265454-74.472728a21.876364 21.876364 0 0 1 0-31.650909 25.6 25.6 0 0 1 34.909091 0l70.74909 67.956364 70.283637-67.956364a26.530909 26.530909 0 0 1 35.374545 0 22.341818 22.341818 0 0 1 0 31.650909l-77.730909 74.472728v22.341818h77.265455a20.48 20.48 0 0 1 20.945454 19.549091 20.014545 20.014545 0 0 1-19.083636 20.945454h-79.127273v29.323637z" fill="#ffffff" p-id="140751"></path></svg>