<?xml version="1.0" standalone="no"?><!DOCTYPE svg PUBLIC "-//W3C//DTD SVG 1.1//EN" "http://www.w3.org/Graphics/SVG/1.1/DTD/svg11.dtd"><svg t="1732508235880" class="icon" viewBox="0 0 1024 1024" version="1.1" xmlns="http://www.w3.org/2000/svg" p-id="14809" xmlns:xlink="http://www.w3.org/1999/xlink" width="200" height="200"><path d="M616.96 143.36c-40.96-12.8-66.56 35.84-48.64 74.24 20.48 40.96 30.72 84.48 30.72 135.68 0 161.28-133.12 294.4-296.96 294.4-17.92 0-35.84-2.56-53.76-5.12-46.08-7.68-97.28 30.72-71.68 71.68 69.12 110.08 192 181.76 330.24 181.76C721.92 896 896 724.48 896 512c0-174.08-122.88-320-279.04-368.64z" fill="#000000" p-id="14810"></path><path d="M258.56 307.2l-69.12 97.28c-23.04 33.28 0 79.36 40.96 79.36h179.2c28.16 0 51.2-23.04 51.2-51.2s-23.04-51.2-51.2-51.2h-79.36c10.24-15.36 20.48-30.72 33.28-43.52 15.36-23.04 43.52-48.64 48.64-74.24 5.12-17.92-5.12-38.4-20.48-48.64-25.6-17.92-69.12-10.24-97.28-10.24H204.8c-28.16 0-51.2 23.04-51.2 51.2s23.04 51.2 51.2 51.2h53.76z" fill="#000000" p-id="14811"></path></svg>