<?xml version="1.0" standalone="no"?><!DOCTYPE svg PUBLIC "-//W3C//DTD SVG 1.1//EN" "http://www.w3.org/Graphics/SVG/1.1/DTD/svg11.dtd"><svg t="1735089522335" class="icon" viewBox="0 0 1024 1024" version="1.1" xmlns="http://www.w3.org/2000/svg" p-id="41808" xmlns:xlink="http://www.w3.org/1999/xlink" width="200" height="200"><path d="M965.253039 85.201638a28.333354 28.333354 0 0 0-28.365606-28.365607H85.096819a28.333354 28.333354 0 0 0-28.365606 28.365607v550.621732h908.521826v-550.621732z" fill="#FFFFFF" p-id="41809"></path><path d="M56.731213 789.931339a28.333354 28.333354 0 0 0 28.365606 28.365606h851.589039a28.333354 28.333354 0 0 0 28.365607-28.365606V692.554583H56.731213V789.931339z" fill="#56ACE0" p-id="41810"></path><path d="M452.253228 875.229732A167.742488 167.742488 0 0 1 411.212598 965.357858h199.559056a167.742488 167.742488 0 0 1-41.04063-90.128126H452.253228zM510.992126 137.707843h232.964031v109.438992H510.992126z" fill="#FFC10D" p-id="41811"></path><path d="M936.887433 0.096756H85.096819C38.226646 0.096756 0 38.323402 0 85.201638V789.931339c0 47.071748 38.218583 85.298394 85.096819 85.298393H394.925354c-10.062614 51.296756-55.126677 90.128126-109.24548 90.128126h-66.987339a28.333354 28.333354 0 0 0-28.365606 28.365607 28.333354 28.333354 0 0 0 28.365606 28.365606h584.824945a28.333354 28.333354 0 0 0 28.365607-28.365606 28.333354 28.333354 0 0 0-28.365607-28.365607h-66.995401c-54.118803 0-99.384441-38.83137-109.237418-90.128126h309.81241c46.878236 0 85.096819-38.218583 85.096819-85.096819V85.201638C1021.984252 38.323402 983.765669 0.096756 936.887433 0.096756zM411.212598 965.357858a167.742488 167.742488 0 0 0 41.04063-90.128126h117.477796a167.742488 167.742488 0 0 0 41.04063 90.128126H411.212598z m554.040441-175.426519a28.333354 28.333354 0 0 1-28.365606 28.365606H85.096819a28.333354 28.333354 0 0 1-28.365606-28.365606V692.554583h908.521826V789.931339z m0-153.906394H56.731213V85.201638a28.333354 28.333354 0 0 1 28.365606-28.365607h851.589039a28.333354 28.333354 0 0 1 28.365607 28.365607v550.823307h0.201574z" fill="#194F82" p-id="41812"></path><path d="M479.006236 782.682709h63.97178a28.333354 28.333354 0 0 0 28.373669-28.365607 28.333354 28.333354 0 0 0-28.373669-28.365606h-63.97178a28.333354 28.333354 0 0 0-28.365606 28.365606 28.333354 28.333354 0 0 0 28.365606 28.365607zM257.50778 215.765669a52.54652 52.54652 0 0 1 52.506204 52.506205 28.333354 28.333354 0 0 0 28.365607 28.365606 28.333354 28.333354 0 0 0 28.365606-28.365606c0-50.49852-34.396724-92.94211-80.871811-105.415559v-24.753386a28.333354 28.333354 0 0 0-28.365606-28.357543 28.333354 28.333354 0 0 0-28.365607 28.365606v24.745323c-46.475087 12.473449-80.871811 54.917039-80.871811 105.415559 0 60.351496 53.110929 109.035843 113.462425 109.035843-0.806299 0.201575 0 0 0.201575 0 26.954583 2.217323 48.079622 24.946898 48.079622 52.312692a52.54652 52.54652 0 0 1-52.506204 52.506205 52.54652 52.54652 0 0 1-52.506205-52.506205 28.333354 28.333354 0 0 0-28.365606-28.365606 28.333354 28.333354 0 0 0-28.365607 28.365606c0 50.490457 34.396724 92.94211 80.871811 105.41556V559.571654a28.333354 28.333354 0 0 0 28.365607 28.365606 28.333354 28.333354 0 0 0 28.365606-28.365606v-24.350237c46.475087-12.465386 80.871811-54.908976 80.871811-105.407496 0-60.359559-49.087496-109.24548-109.438992-109.24548 0.806299-0.201575 0 0-0.201575 0-26.954583-2.20926-52.30463-24.543748-52.30463-52.103055 0.201575-29.171906 23.737449-52.70778 52.70778-52.70778z" fill="#194F82" p-id="41813"></path><path d="M705.737575 385.354583l37.621921 92.345448 8.441953-27.357732a28.688126 28.688126 0 0 1 18.915779-18.915779l27.357733-8.450016-92.337386-37.621921z" fill="#FFC10D" p-id="41814"></path><path d="M893.234394 400.448504L664.696945 307.296756a28.559118 28.559118 0 0 0-30.784504 6.240756 28.559118 28.559118 0 0 0-6.232693 30.776441l93.143685 228.545512a28.688126 28.688126 0 0 0 26.357921 17.698267c9.449827 0 22.93115-5.829543 27.156158-20.117165l17.899842-58.537323 32.598677 32.590614c11.062425 11.868724 29.365417 10.457701 40.234331 0 11.062425-11.070488 11.062425-28.970331 0-40.23433l-32.590614-32.598678 58.537323-17.899842c11.473638-3.418709 19.512441-13.884472 20.125228-25.954772a28.34948 28.34948 0 0 0-17.907905-27.357732z m-141.626457 49.69222l-8.450016 27.357733-37.621921-92.345449 92.337386 37.621921-27.357732 8.450016a28.688126 28.688126 0 0 0-18.907717 18.915779z" fill="#194F82" p-id="41815"></path></svg>