<?xml version="1.0" standalone="no"?><!DOCTYPE svg PUBLIC "-//W3C//DTD SVG 1.1//EN" "http://www.w3.org/Graphics/SVG/1.1/DTD/svg11.dtd"><svg t="1732511317516" class="icon" viewBox="0 0 1024 1024" version="1.1" xmlns="http://www.w3.org/2000/svg" p-id="14064" xmlns:xlink="http://www.w3.org/1999/xlink" width="200" height="200"><path d="M342.73 692.02c-24.92 0-45.19 20.27-45.19 45.18s20.27 45.18 45.19 45.18c24.91 0 45.18-20.27 45.18-45.18s-20.26-45.18-45.18-45.18z" p-id="14065"></path><path d="M815.34 173.34h-38.9v-55.67c0-30.75-24.92-55.67-55.67-55.67s-55.67 24.92-55.67 55.67v55.67H358.91v-55.67c0-30.75-24.92-55.67-55.67-55.67s-55.67 24.92-55.67 55.67v55.67h-38.9c-47.69 0-86.36 38.66-86.36 86.36v615.94c0 47.69 38.67 86.36 86.36 86.36h606.67c47.69 0 86.36-38.67 86.36-86.36V259.7c0-47.7-38.67-86.36-86.36-86.36zM342.73 819.88c-45.59 0-82.69-37.09-82.69-82.68s37.1-82.68 82.69-82.68c45.59 0 82.68 37.09 82.68 82.68s-37.08 82.68-82.68 82.68z m90.05-344.05l-90.6 90.6c-5.49 5.49-12.69 8.24-19.88 8.24s-14.37-2.74-19.86-8.21l-49.71-49.53c-11-10.97-11.03-28.77-0.07-39.78 10.96-11 28.77-11.03 39.77-0.07l29.83 29.72L393 436.06c10.99-10.99 28.8-10.99 39.78 0 10.98 10.98 10.98 28.79 0 39.77z m317.04 349.4H529.51c-15.54 0-28.13-12.59-28.13-28.13 0-15.53 12.59-28.12 28.13-28.12h220.31c15.54 0 28.13 12.59 28.13 28.12 0 15.54-12.6 28.13-28.13 28.13z m0-120.01H529.51c-15.54 0-28.13-12.59-28.13-28.12 0-15.54 12.59-28.13 28.13-28.13h220.31c15.54 0 28.13 12.59 28.13 28.13 0 15.53-12.6 28.12-28.13 28.12z m0-120.01H529.51c-15.54 0-28.13-12.59-28.13-28.12 0-15.54 12.59-28.13 28.13-28.13h220.31c15.54 0 28.13 12.59 28.13 28.13 0 15.53-12.6 28.12-28.13 28.12z m0-120.01H529.51c-15.54 0-28.13-12.59-28.13-28.12 0-15.53 12.59-28.13 28.13-28.13h220.31c15.54 0 28.13 12.6 28.13 28.13s-12.6 28.12-28.13 28.12z" p-id="14066"></path></svg>