<?xml version="1.0" standalone="no"?><!DOCTYPE svg PUBLIC "-//W3C//DTD SVG 1.1//EN" "http://www.w3.org/Graphics/SVG/1.1/DTD/svg11.dtd"><svg t="1735879008749" class="icon" viewBox="0 0 1024 1024" version="1.1" xmlns="http://www.w3.org/2000/svg" p-id="114691" xmlns:xlink="http://www.w3.org/1999/xlink" width="200" height="200"><path d="M168.71619 295.009524l-27.306666-4.388572c-2.925714 0.487619-5.851429 1.462857-7.801905 3.900953-1.950476 1.950476-4.388571 3.900952-4.87619 6.826666l-17.066667 177.005715c-0.487619 0.975238-0.487619 1.462857-0.487619 2.438095 0 1.462857 0.487619 2.438095 0.487619 3.900952 0.975238 0.975238 1.462857 1.950476 2.438095 2.925715 0.487619 0.487619 1.462857 1.462857 2.438095 1.462857l39.984762 1.950476c0.487619 0.487619 0.487619 0.487619 0.975238 0 0.975238-0.487619 0.975238-1.462857 1.462858-1.950476a10.24 10.24 0 0 0 2.925714-1.950476c1.462857-1.462857 2.925714-4.388571 3.413333-6.826667l15.116191-176.518095c0-1.950476 0-4.87619-1.462858-5.851429a17.408 17.408 0 0 0-10.24-2.925714z m52.662858-122.392381c-21.455238 14.140952-30.72 41.935238-20.967619 65.828571 8.289524 20.967619 28.281905 33.158095 51.2 33.645715 18.041905 0.487619 36.08381-9.752381 46.323809-24.380953 14.140952-21.455238 11.215238-50.712381-6.826667-68.266666-18.529524-17.554286-48.761905-20.48-69.729523-6.826667z" fill="#0089BE" p-id="114692"></path><path d="M772.87619 64.365714c-39.497143-44.373333-86.308571-28.281905-103.862857 0-17.554286 28.281905 2.438095 89.234286-39.497143 120.929524-41.935238 31.695238-85.820952 35.59619-85.820952 35.596191-2.925714 1.462857-5.851429 2.438095-8.777143 2.925714-9.264762 2.925714-11.702857 2.925714-19.504762 8.777143-5.851429 4.87619-10.727619 9.752381-15.11619 16.091428l-295.497143 48.761905c-1.462857 0.487619-2.438095 0-3.900952 0.487619s-2.925714 0.975238-4.388572 1.950476c-0.975238 0.975238-0.975238 1.950476-1.462857 3.413334-0.487619 1.462857-0.487619 3.413333-0.487619 4.87619L170.666667 529.554286c-0.487619 2.925714-0.975238 5.851429-0.487619 9.264762 0.487619 4.388571 0.487619 9.264762 0.487619 14.140952l4.388571 12.678095-93.135238 298.422857s-20.967619 60.464762-15.11619 79.481905c12.678095 38.034286 77.04381 38.034286 134.095238 38.034286h566.125714c68.754286 0 131.169524-25.84381 180.419048-66.80381h1.950476v-1.462857a28.769524 28.769524 0 0 0 9.264762-27.306666c-23.405714-114.102857-160.426667-793.35619-185.782858-821.638096zM341.820952 729.965714S242.834286 828.952381 192.121905 849.432381c-50.712381 19.992381-65.340952 1.462857-65.340953 1.462857l130.194286-270.140952 95.573333-1.950476-10.727619 151.161904z m45.348572-21.455238l30.72-161.889524c0.487619-0.975238 0-2.925714 0-3.900952v-2.925714c-0.975238-0.975238-1.950476-2.438095-3.413334-3.413334-0.975238-0.487619-1.950476-0.975238-2.925714-0.975238l-142.872381-40.472381c4.87619-16.091429 9.752381-31.695238 14.140953-48.274285 3.413333-13.165714 6.339048-26.331429 9.752381-39.497143 6.339048-24.868571 12.190476-49.249524 17.066666-74.605715l192.609524-58.514285-115.078095 434.468571z" fill="#52B356" p-id="114693"></path></svg>