<?xml version="1.0" standalone="no"?><!DOCTYPE svg PUBLIC "-//W3C//DTD SVG 1.1//EN" "http://www.w3.org/Graphics/SVG/1.1/DTD/svg11.dtd"><svg t="1733140625052" class="icon" viewBox="0 0 1024 1024" version="1.1" xmlns="http://www.w3.org/2000/svg" p-id="45924" xmlns:xlink="http://www.w3.org/1999/xlink" width="200" height="200"><path d="M949.930667 562.858667l-301.738667 301.738666a42.666667 42.666667 0 0 1-60.330667-60.330666l271.530667-271.530667L587.946667 261.12a42.666667 42.666667 0 1 1 60.330666-60.330667l301.738667 301.653334a42.666667 42.666667 0 0 1 0 60.330666z m-512 0l-301.738667 301.738666a42.666667 42.666667 0 0 1-60.330667-60.330666l271.530667-271.530667L75.946667 261.12a42.666667 42.666667 0 1 1 60.330666-60.330667l301.738667 301.653334a42.666667 42.666667 0 0 1 0 60.330666z" fill="#5486FC" p-id="45925"></path></svg>