<?xml version="1.0" standalone="no"?><!DOCTYPE svg PUBLIC "-//W3C//DTD SVG 1.1//EN" "http://www.w3.org/Graphics/SVG/1.1/DTD/svg11.dtd"><svg t="1733140610843" class="icon" viewBox="0 0 1024 1024" version="1.1" xmlns="http://www.w3.org/2000/svg" p-id="41649" xmlns:xlink="http://www.w3.org/1999/xlink" width="200" height="200"><path d="M75.946667 562.858667l301.653333 301.738666a42.666667 42.666667 0 0 0 60.330667-60.330666L166.4 532.736 437.930667 261.12a42.666667 42.666667 0 1 0-60.330667-60.330667L75.861333 502.528a42.666667 42.666667 0 0 0 0 60.330667z m512 0l301.653333 301.738666a42.666667 42.666667 0 0 0 60.330667-60.330666L678.4 532.736l271.530667-271.530667a42.666667 42.666667 0 1 0-60.330667-60.330666L587.861333 502.528a42.666667 42.666667 0 0 0 0 60.330667z" fill="#5486FC" p-id="41650"></path></svg>