<?xml version="1.0" standalone="no"?><!DOCTYPE svg PUBLIC "-//W3C//DTD SVG 1.1//EN" "http://www.w3.org/Graphics/SVG/1.1/DTD/svg11.dtd"><svg t="1735805411507" class="icon" viewBox="0 0 1024 1024" version="1.1" xmlns="http://www.w3.org/2000/svg" p-id="17291" xmlns:xlink="http://www.w3.org/1999/xlink" width="200" height="200"><path d="M103.148983 912.896C-26.313874 799.012571-42.222446 204.873143 103.148983 87.771429 248.410697-29.257143 813.036983-29.257143 926.518126 87.771429c113.481143 117.065143 129.389714 628.370286 0 793.234285-129.389714 164.864-694.016 145.737143-823.442286 31.817143z m209.115428-497.590857Q285.274697 439.296 285.274697 475.428571q0 36.132571 26.989714 60.123429l133.851429 118.966857a43.885714 43.885714 0 0 0 58.294857-65.609143L376.776411 475.428571l127.634286-113.481142a43.885714 43.885714 0 1 0-58.331428-65.609143l-133.814858 118.966857z m224.073143-1.060572q-29.074286 23.259429-30.171428 60.489143-1.097143 37.229714 26.624 62.171429l150.820571 135.716571a43.885714 43.885714 0 0 0 58.733714-65.243428l-144.457142-129.974857 142.482285-113.993143a43.885714 43.885714 0 1 0-54.820571-68.534857l-149.211429 119.369142z" fill="#FF579A" p-id="17292"></path></svg>