<?xml version="1.0" standalone="no"?><!DOCTYPE svg PUBLIC "-//W3C//DTD SVG 1.1//EN" "http://www.w3.org/Graphics/SVG/1.1/DTD/svg11.dtd"><svg t="1735983087745" class="icon" viewBox="0 0 1216 1024" version="1.1" xmlns="http://www.w3.org/2000/svg" p-id="32230" xmlns:xlink="http://www.w3.org/1999/xlink" width="237.5" height="200"><path d="M49.472 246.592s2.88-0.32 4.416 1.536c1.536 1.92 3.52 28.8 10.496 36.096 7.04 7.296 35.584 3.2 35.584 12.8 0 7.552-26.432 8.512-35.392 15.808-8.96 7.296-3.84 38.4-14.784 37.12-8.576-0.896-2.624-25.6-13.12-35.456C26.112 304.576 0.512 306.56 0.512 297.6s26.24-3.52 35.2-13.696c8.832-10.048 5.056-37.312 13.76-37.312z" fill="#FFBB5A" p-id="32231"></path><path d="M1010.496 30.08s1.92-0.064 3.008 1.152 2.496 19.328 7.168 24.32c4.736 5.056 24 2.112 24 8.704 0 5.12-17.92 5.76-24 10.624-6.08 5.056-2.56 25.92-10.048 25.152-5.76-0.64-1.664-17.28-8.832-23.936-7.168-6.656-24.384-5.312-24.384-11.392 0-6.08 17.664-2.432 23.744-9.28 6.144-6.848 3.52-25.28 9.344-25.28z" fill="#E94151" p-id="32232"></path><path d="M1160 362.112s2.88-0.256 4.544 1.728c1.664 1.92 3.52 29.184 10.688 36.672 7.168 7.424 35.968 3.2 35.968 12.928 0 7.744-26.88 8.704-35.968 16.128-9.152 7.488-3.968 38.976-15.104 37.76-8.704-0.896-2.56-25.856-13.248-35.904-10.688-10.048-36.8-8.064-36.8-17.28 0-9.088 26.688-3.456 35.712-13.952 9.28-10.496 5.504-38.08 14.208-38.08z" fill="#FF0000" p-id="32233"></path><path d="M168.128 30.08a30.272 30.272 0 0 0 60.416 0 30.272 30.272 0 0 0-60.416 0z m813.056 268.288a29.76 29.76 0 1 0 59.52-0.128 29.76 29.76 0 0 0-59.52 0.128z" fill="#FFEB00" p-id="32234"></path><path d="M183.552 280.384c0 114.624 171.328 207.488 382.592 207.488 211.2 0 382.528-92.8 382.528-207.488 0-114.56-171.136-207.36-382.4-207.36-211.392 0-382.72 92.928-382.72 207.36z" fill="#DB1818" p-id="32235"></path><path d="M636.608 316.032c0 76.544 62.208 138.496 138.816 138.496 76.736 0 138.816-62.08 138.816-138.496a138.752 138.752 0 0 0-138.88-138.56 138.56 138.56 0 0 0-138.752 138.56z" fill="#F4AD51" p-id="32236"></path><path d="M659.2 316.032c0 41.408 22.08 79.744 58.112 100.48a116.48 116.48 0 0 0 116.224 0 115.904 115.904 0 0 0 0-200.96 116.48 116.48 0 0 0-116.224 0 115.904 115.904 0 0 0-58.112 100.48z" fill="#F4E476" p-id="32237"></path><path d="M821.632 331.264h-34.624V307.2h34.624a11.392 11.392 0 1 0 0-22.848h-19.84l12.672-21.76a11.328 11.328 0 0 0-4.288-15.36 11.52 11.52 0 0 0-15.552 3.904l-19.2 32.768-18.944-32.896a11.456 11.456 0 0 0-15.552-3.968 11.328 11.328 0 0 0-4.288 15.36l12.544 21.76h-19.84a11.392 11.392 0 1 0 0 22.848h34.624v24.064h-34.624a11.392 11.392 0 1 0 0 22.848h34.624v20.992a11.392 11.392 0 1 0 22.912 0V353.92h34.56a11.2 11.2 0 0 0 9.984-5.76 11.712 11.712 0 0 0 0-11.456 11.584 11.584 0 0 0-9.792-5.44z m-603.52-15.232c0 76.544 62.272 138.496 138.88 138.496 76.736 0 138.816-62.08 138.816-138.496a138.752 138.752 0 0 0-277.632 0z" fill="#F4AD51" p-id="32238"></path><path d="M240.768 316.032c0 41.408 22.08 79.744 58.112 100.48a116.48 116.48 0 0 0 116.224 0 115.904 115.904 0 0 0-58.112-216.512 116.096 116.096 0 0 0-116.224 116.032z" fill="#F4E476" p-id="32239"></path><path d="M403.2 331.264H368.64V307.2H403.2a11.392 11.392 0 1 0 0-22.848h-19.84l12.672-21.76a11.328 11.328 0 0 0-4.288-15.36 11.52 11.52 0 0 0-15.552 3.904l-18.88 32.896-18.944-32.896a11.456 11.456 0 0 0-15.552-3.904 11.328 11.328 0 0 0-4.288 15.36l12.672 21.76h-19.84a11.392 11.392 0 1 0 0 22.848h34.624v24.064h-34.56a11.392 11.392 0 1 0 0 22.784h34.56v21.056a11.392 11.392 0 1 0 22.912 0v-21.056H403.2a11.2 11.2 0 0 0 9.92-5.76 11.712 11.712 0 0 0 0-11.392 11.648 11.648 0 0 0-9.92-5.632z" fill="#F4AD51" p-id="32240"></path><path d="M368.704 257.536c0 108.864 88.512 196.992 197.568 196.992a197.248 197.248 0 0 0 197.568-196.992c0-108.8-88.512-196.928-197.568-196.928a197.248 197.248 0 0 0-197.568 196.928z" fill="#FFBB5A" p-id="32241"></path><path d="M400.896 257.536a165.376 165.376 0 0 0 330.688 0 165.248 165.248 0 0 0-165.312-164.992 165.12 165.12 0 0 0-165.376 164.992z" fill="#FFF48D" p-id="32242"></path><path d="M631.872 279.36h-49.28v-34.304h49.28a16.32 16.32 0 0 0 0-32.576h-28.224l17.856-30.848a16.32 16.32 0 0 0-28.224-16.32l-27.008 46.72-27.008-46.72a16.32 16.32 0 1 0-28.352 16.32l17.856 30.848H500.48a16.32 16.32 0 0 0 0 32.64h49.28v34.24h-49.28a16.32 16.32 0 0 0 0 32.512h49.28v29.888a16.32 16.32 0 0 0 32.64 0v-29.888h49.28a16.32 16.32 0 0 0 14.208-24.512 16 16 0 0 0-14.08-8z" fill="#FFBB5A" p-id="32243"></path><path d="M567.168 355.264c-155.712 0-294.08-34.56-382.528-88.128V946.56c0 42.816 34.752 77.504 77.632 77.504h609.856c42.88 0 77.632-34.688 77.632-77.44V266.944c-88.448 53.76-226.816 88.32-382.592 88.32z" fill="#FF4545" p-id="32244"></path><path d="M523.136 792.192H426.368v-43.136h96.768v-29.952H426.368v-43.072h78.272L388.48 490.88h105.216l38.144 83.968c19.072 41.6 23.488 52.544 35.584 79.04h3.008c12.544-26.496 18.048-39.552 35.584-79.04l37.056-83.968h103.296l-116.288 185.088h78.272v43.072H612.48v29.952h95.808v43.136H612.48v73.024H523.264v-73.024h-0.128z" fill="#FFFFFF" p-id="32245"></path></svg>