<?xml version="1.0" standalone="no"?><!DOCTYPE svg PUBLIC "-//W3C//DTD SVG 1.1//EN" "http://www.w3.org/Graphics/SVG/1.1/DTD/svg11.dtd"><svg t="1734432046835" class="icon" viewBox="0 0 1025 1024" version="1.1" xmlns="http://www.w3.org/2000/svg" p-id="49183" xmlns:xlink="http://www.w3.org/1999/xlink" width="200.1953125" height="200"><path d="M133.598549 980.51072c-40.198485-10.824363-75.795797-44.959744-90.578944-86.859776-6.477824-18.359637-7.519915-73.968981-7.519914-400.918869 0-424.378709-1.437355-406.016 35.07473-447.496534 10.713429-12.174336 30.034603-27.332608 42.935296-33.684138L136.96 0h723.315371l29.348522 14.996821c22.683989 11.593387 33.844224 21.526869 49.148246 43.749376l19.796992 28.753238 1.596757 70.979925c1.839787 81.920683-0.897365 91.468459-26.238635 91.468459-27.354112 0-32.278187-12.138496-32.278186-79.561046 0-63.099904-5.246976-77.667669-36.245163-100.63872-13.866325-10.276523-16.600064-10.354005-363.78624-10.354005-342.119765 0-350.189568 0.220501-367.133696 10.012331-10.259115 5.929984-21.864107 18.970283-28.460032 31.981909l-11.136 21.971968v738.220032l11.136 21.968896c19.593899 38.657707 29.653675 41.618432 151.149227 44.474027 114.066773 2.677077 114.649771 2.832384 114.806101 30.652416 0.147797 25.947819-11.658581 28.777813-118.573739 28.406784-61.126997-0.209579-105.15968-2.62656-119.806976-6.571691z m852.190891 3.48672c-4.083371-1.448619-39.860224-34.793813-79.498923-74.098688l-72.072874-71.460523-42.633899 26.76736c-24.770219 15.548416-60.931755 32.763904-86.30784 41.078443-40.138411 13.157376-49.476267 14.305621-115.439616 14.190592-67.544064-0.116395-74.317141-1.029461-115.130368-15.515307-61.524309-21.837141-94.137685-42.663595-142.239403-90.826752-47.510187-47.572651-73.352875-88.235008-92.75392-145.954133-12.096512-35.984725-13.309611-46.370133-13.30961-113.838421 0-67.466923 1.213099-77.854037 13.30961-113.837739 19.387392-57.677141 45.220864-98.351445 92.75392-146.030592 47.422805-47.570261 87.824043-73.209856 146.00704-92.656299 35.897685-11.997525 46.532267-13.234859 113.837739-13.234858 67.303765 0 77.941419 1.237333 113.835008 13.234858 58.313045 19.488085 98.585259 45.069653 146.010112 92.745728 72.294059 72.675669 103.867051 143.310165 107.865088 241.306624 3.578197 87.689216-14.486187 154.836992-59.940864 222.793728l-24.434005 36.530518 74.871808 75.435008c48.918869 49.287851 74.870101 79.048363 74.870101 85.853525 0 5.726549-5.868544 15.031979-13.038933 20.671488-13.7216 10.797056-14.716245 11.051349-26.560171 6.84544z m-329.139883-127.737856c103.824725-21.724501 188.928-96.576512 227.912363-200.455509 12.444672-33.159851 13.969749-43.724117 14.270464-98.989398 0.306859-55.401131-1.108992-66.096128-13.551275-102.327637-25.125888-73.172309-78.938112-136.278357-146.464768-171.762005-46.756523-24.571221-74.157056-32.52224-124.251136-36.060502-60.28288-4.259499-105.716736 4.678656-158.746965 31.227222-52.401152 26.232149-90.092203 59.383808-122.350251 107.612501-36.03456 53.878101-48.026283 96.025941-48.026282 168.833707 0 52.178261 1.689259 64.311637 13.893632 99.851946 26.203819 76.307456 81.653419 139.430229 153.75121 175.019008 66.637824 32.898048 133.287595 41.752235 203.563008 27.050667z m-80.559445-64.628736c-12.784299-8.951467-14.843563-32.290133-3.827029-43.308373 3.949227-3.945472 20.055381-8.784555 35.798698-10.750635 44.164779-5.520725 77.873152-20.461227 107.748352-47.768235 32.882688-30.052011 50.598912-64.531797 59.50191-115.802794 7.179605-41.342635 11.987968-47.684949 34.62144-45.697707 24.28416 2.128896 30.821035 19.981312 23.450965 64.043691-16.735573 100.044117-91.203584 179.255979-187.770197 199.715498-43.031211 9.11872-56.003584 9.040896-69.524139-0.431445z m-198.148779-299.352405c-13.89056-12.942336-13.630464-19.360768 2.045611-50.29376 24.073899-47.50848 93.125632-107.710805 123.702272-107.849728 14.895104-0.065877 27.791019 16.287744 25.885355 32.826026-1.230507 10.682368-8.159915 18.277035-29.587798 32.427691-28.86144 19.061077-56.306347 49.001472-70.444714 76.852565-13.564587 26.716843-33.488896 32.907605-51.600726 16.037206z" fill="#0190DD" p-id="49184"></path></svg>