<?xml version="1.0" standalone="no"?><!DOCTYPE svg PUBLIC "-//W3C//DTD SVG 1.1//EN" "http://www.w3.org/Graphics/SVG/1.1/DTD/svg11.dtd"><svg t="1735212522662" class="icon" viewBox="0 0 1084 1024" version="1.1" xmlns="http://www.w3.org/2000/svg" p-id="44968" xmlns:xlink="http://www.w3.org/1999/xlink" width="211.71875" height="200"><path d="M1055.837124 478.511455l-189.383369 181.614104 44.628105 256.325526a92.689141 92.689141 0 0 1-134.727491 96.814681L542.041761 892.059206l-234.372835 121.236674a92.659028 92.659028 0 0 1-134.697377-96.784568l44.658218-256.385753-189.383369-181.614104a91.424377 91.424377 0 0 1 51.463854-156.589842l261.986852-37.400881 117.111133-233.379092a93.351637 93.351637 0 0 1 166.587502 0l117.111134 233.409205 261.986851 37.400882a91.424377 91.424377 0 0 1 51.3434 156.559728z m-226.061528 2.0176a41.104834 41.104834 0 0 0-60.407543-0.993743L674.540858 576.771581a46.736045 46.736045 0 0 0-12.37662 40.02075l23.307796 143.460387a44.688332 44.688332 0 0 0 27.312882 34.841239 40.954266 40.954266 0 0 0 42.158804-7.648811 46.645705 46.645705 0 0 0 14.755581-42.459938l-19.48339-119.97191 78.716509-80.673882a46.946839 46.946839 0 0 0 0.843176-63.810361z" fill="#FA7268" p-id="44969"></path></svg>