<?xml version="1.0" standalone="no"?><!DOCTYPE svg PUBLIC "-//W3C//DTD SVG 1.1//EN" "http://www.w3.org/Graphics/SVG/1.1/DTD/svg11.dtd"><svg t="1735126634832" class="icon" viewBox="0 0 1024 1024" version="1.1" xmlns="http://www.w3.org/2000/svg" p-id="145169" xmlns:xlink="http://www.w3.org/1999/xlink" width="200" height="200"><path d="M868.266667 286.293333a157.610667 157.610667 0 0 1-111.36 150.613334A252.16 252.16 0 0 0 768 362.666667a255.573333 255.573333 0 0 0-125.013333-219.733334A160.810667 160.810667 0 0 1 710.4 128a158.165333 158.165333 0 0 1 157.866667 158.293333z m-32 195.84a70.229333 70.229333 0 0 0-53.333334 6.4 142.08 142.08 0 0 1-59.306666 17.493334 217.6 217.6 0 0 1-29.866667 36.266666A231.466667 231.466667 0 0 1 849.92 725.333333h29.44a52.394667 52.394667 0 0 0 46.506667-26.88 108.842667 108.842667 0 0 0 12.8-51.626666v-30.293334a138.282667 138.282667 0 0 0-102.4-134.4zM381.013333 142.933333A160.810667 160.810667 0 0 0 313.6 128a157.866667 157.866667 0 0 0-46.506667 308.906667A252.16 252.16 0 0 1 256 362.666667a255.573333 255.573333 0 0 1 125.013333-219.733334z m-50.773333 399.36a217.6 217.6 0 0 1-29.866667-36.266666 142.08 142.08 0 0 1-59.306666-17.493334 70.229333 70.229333 0 0 0-53.333334-6.4A138.282667 138.282667 0 0 0 85.333333 616.533333v30.293334a108.842667 108.842667 0 0 0 12.8 51.626666 52.224 52.224 0 0 0 46.08 26.88h29.866667a231.466667 231.466667 0 0 1 156.16-183.04z m334.506667 58.026667a99.541333 99.541333 0 0 0-22.613334-2.986667 86.741333 86.741333 0 0 0-42.24 11.093334 182.101333 182.101333 0 0 1-175.786666 0 86.741333 86.741333 0 0 0-42.24-11.093334 99.541333 99.541333 0 0 0-22.613334 2.986667A168.746667 168.746667 0 0 0 234.666667 763.733333v37.12a131.114667 131.114667 0 0 0 15.786666 62.293334 62.08 62.08 0 0 0 55.893334 32.853333h411.306666a62.08 62.08 0 0 0 55.893334-32.853333 131.114667 131.114667 0 0 0 15.786666-62.293334v-37.12a168.746667 168.746667 0 0 0-124.586666-163.413333z m39.253333-237.653333A192 192 0 1 0 512 554.666667a192 192 0 0 0 192-192z" fill="#ffffff" p-id="145170"></path></svg>