<?xml version="1.0" standalone="no"?><!DOCTYPE svg PUBLIC "-//W3C//DTD SVG 1.1//EN" "http://www.w3.org/Graphics/SVG/1.1/DTD/svg11.dtd"><svg t="1735126280814" class="icon" viewBox="0 0 1024 1024" version="1.1" xmlns="http://www.w3.org/2000/svg" p-id="122630" xmlns:xlink="http://www.w3.org/1999/xlink" width="200" height="200"><path d="M203.52 223.085714l292.132571-146.066285a36.571429 36.571429 0 0 1 32.694858 0l292.571428 146.285714A36.571429 36.571429 0 0 1 841.142857 256v329.142857a36.571429 36.571429 0 0 1-20.224 32.694857l-292.205714 146.139429a36.205714 36.205714 0 0 1-33.389714 0l-292.242286-146.139429A36.571429 36.571429 0 0 1 182.857143 585.142857V256c0-14.994286 8.740571-27.136 20.662857-32.914286zM548.571429 672.219429l219.428571-109.714286V278.601143l-256-128L301.202286 256l227.145143 113.590857A36.571429 36.571429 0 0 1 548.571429 402.285714v269.970286z m-490.422858-87.04a36.571429 36.571429 0 0 1 64.804572 33.974857A109.494857 109.494857 0 0 0 109.714286 670.427429C109.714286 779.117714 287.122286 877.714286 512 877.714286s402.285714-98.56 402.285714-207.250286c0-17.005714-4.278857-33.828571-12.8-50.468571a36.571429 36.571429 0 0 1 64.987429-33.462858c13.787429 26.697143 20.955429 55.003429 20.955428 83.931429C987.428571 831.085714 771.876571 950.857143 512 950.857143S36.571429 831.085714 36.571429 670.427429c0-29.403429 7.387429-58.075429 21.577142-85.211429z" fill="#ffffff" p-id="122631"></path></svg>