<?xml version="1.0" standalone="no"?><!DOCTYPE svg PUBLIC "-//W3C//DTD SVG 1.1//EN" "http://www.w3.org/Graphics/SVG/1.1/DTD/svg11.dtd"><svg t="1732508375040" class="icon" viewBox="0 0 1024 1024" version="1.1" xmlns="http://www.w3.org/2000/svg" p-id="29796" xmlns:xlink="http://www.w3.org/1999/xlink" width="200" height="200"><path d="M273.493333 85.333333A188.458667 188.458667 0 0 0 85.333333 273.493333v285.866667a188.202667 188.202667 0 0 0 188.16 188.16h163.84a42.666667 42.666667 0 0 1 42.666667 42.666667v41.386666a42.666667 42.666667 0 0 1-42.666667 42.666667H334.08a32.213333 32.213333 0 0 0 0 64.426667h356.266667a32 32 0 1 0 0-64h-103.253334a42.666667 42.666667 0 0 1-42.666666-42.666667v-41.386667a42.666667 42.666667 0 0 1 42.666666-42.666666h162.56a188.202667 188.202667 0 0 0 188.16-188.16v-285.866667A189.184 189.184 0 0 0 749.226667 85.333333z" p-id="29797" fill="#e6e6e6"></path></svg>