<?xml version="1.0" standalone="no"?><!DOCTYPE svg PUBLIC "-//W3C//DTD SVG 1.1//EN" "http://www.w3.org/Graphics/SVG/1.1/DTD/svg11.dtd"><svg t="1735980776436" class="icon" viewBox="0 0 1024 1024" version="1.1" xmlns="http://www.w3.org/2000/svg" p-id="10899" xmlns:xlink="http://www.w3.org/1999/xlink" width="200" height="200"><path d="M832 757.333H355.413a74.667 74.667 0 0 1-73.386-61.013l-97.28-525.653a10.667 10.667 0 0 0-10.454-8.747h-49.706a32 32 0 0 1 0-64h49.706A74.667 74.667 0 0 1 247.68 160l97.28 524.587a10.667 10.667 0 0 0 10.453 8.746H832a32 32 0 0 1 0 64zM298.667 644.907a32 32 0 0 1-2.134-64l484.054-32.214a53.333 53.333 0 0 0 49.28-46.506l27.946-223.574a10.667 10.667 0 0 0-10.666-11.946h-484.48a32 32 0 0 1 0-64h484.906a74.667 74.667 0 0 1 74.027 83.84L893.867 510.08A117.547 117.547 0 0 1 785.28 612.693l-484.053 32.214zM309.333 853.333a64 64 0 1 0 128 0 64 64 0 1 0-128 0z m394.667 0a64 64 0 1 0 128 0 64 64 0 1 0-128 0z" fill="#2C2C2C" p-id="10900"></path></svg>