<?xml version="1.0" standalone="no"?><!DOCTYPE svg PUBLIC "-//W3C//DTD SVG 1.1//EN" "http://www.w3.org/Graphics/SVG/1.1/DTD/svg11.dtd"><svg height="480" node-id="1" sillyvg="true" template-height="480" template-width="480" version="1.1" viewBox="0 0 480 480" width="480" xmlns="http://www.w3.org/2000/svg" xmlns:xlink="http://www.w3.org/1999/xlink"><defs node-id="23"><linearGradient gradientUnits="objectBoundingBox" id="linearGradient-1" node-id="7" spreadMethod="pad" x1="-0.16480711" x2="1" y1="0.5" y2="0.5"><stop offset="0" stop-color="#ffffff" stop-opacity="0.20126748"></stop><stop offset="1" stop-color="#ffffff"></stop></linearGradient></defs><g node-id="30"><g node-id="31"><g node-id="34"><path d="M 251.90 431.40 L 258.70 432.60 L 265.60 433.50 L 272.50 433.90 L 279.50 433.90 L 286.60 433.50 L 295.40 432.40 L 304.20 430.80 L 313.10 428.60 L 322.00 425.80 L 330.70 422.60 L 339.30 418.80 L 347.90 414.50 L 356.40 409.60 L 364.60 404.40 L 372.70 398.70 L 380.50 392.60 L 388.20 386.00 L 395.60 379.10 L 402.60 371.80 L 409.40 364.10 L 415.90 356.00 L 422.00 347.70 L 427.70 339.10 L 433.00 330.10 L 437.90 320.90 L 442.30 311.40 L 446.20 301.70 L 449.60 291.80 L 452.50 281.70 L 454.80 271.40 L 456.50 260.90 L 457.70 250.30 L 458.20 239.50 L 457.30 227.30 L 455.80 215.50 L 453.60 203.80 L 450.90 192.30 L 447.50 181.00 L 443.60 169.90 L 439.20 159.20 L 434.20 148.70 L 428.60 138.50 L 422.60 128.70 L 416.10 119.20 L 409.10 110.10 L 401.50 101.30 L 393.60 93.00 L 385.20 85.10 L 376.40 77.70 L 369.00 72.10 L 361.40 66.80 L 353.60 61.90 L 345.40 57.30 L 337.10 53.00 L 328.50 49.10 L 319.80 45.60 L 310.80 42.40 L 301.50 39.70 L 292.00 37.30 L 282.50 35.40 L 272.80 33.90 L 262.80 32.80 L 252.60 32.20 L 242.10 32.00 L 233.00 32.30 L 224.10 33.00 L 215.40 34.10 L 207.00 35.70 L 198.70 37.60 L 188.40 40.50 L 178.50 44.00 L 168.80 48.00 L 159.50 52.40 L 150.40 57.40 L 141.60 62.90 L 133.10 68.70 L 125.00 74.90 L 117.10 81.50 L 109.60 88.50 L 102.40 95.70 L 95.50 103.20 L 88.90 111.00 L 82.70 119.00 L 76.90 127.20 L 71.40 135.60 L 66.30 144.20 L 57.20 161.50 L 49.60 179.20 L 46.40 188.00 L 41.20 205.50 L 39.20 214.30 L 36.50 231.30 L 35.80 239.50 L 35.50 248.10 L 35.80 256.50 L 36.50 264.80 L 37.70 273.00 L 39.40 281.00 L 41.50 289.00 L 44.10 296.80 L 47.10 304.40 L 50.50 312.00 L 54.40 319.40 L 58.60 326.60 L 63.20 333.60 L 68.20 340.40 L 73.60 347.20 L 79.50 353.70 L 87.10 361.50 L 95.20 369.00 L 103.90 376.10 L 113.20 383.00 L 122.70 389.40 L 132.70 395.40 L 143.10 401.10 L 154.10 406.40 L 165.20 411.10 L 176.60 415.50 L 188.50 419.40 L 200.80 422.80 L 213.10 425.70 L 225.70 428.10 L 238.60 430.00 L 251.90 431.40 Z" fill="#e8748a" fill-opacity="0.2" fill-rule="evenodd" group-id="1,2,5" id="1" node-id="13" stroke="none" target-height="401.9" target-width="422.7" target-x="35.5" target-y="32"></path></g><g node-id="35"><path d="M 214.10 447.30 L 223.10 447.50 L 231.90 447.10 L 240.70 446.40 L 249.30 445.10 L 257.80 443.50 L 268.40 440.80 L 278.70 437.50 L 288.80 433.70 L 298.60 429.30 L 308.20 424.30 L 317.50 418.90 L 326.40 413.00 L 335.00 406.70 L 343.30 399.90 L 351.20 392.80 L 358.60 385.40 L 365.60 377.60 L 372.30 369.50 L 378.40 361.20 L 383.90 352.70 L 389.00 344.00 L 393.60 335.00 L 397.60 326.00 L 400.90 316.90 L 403.70 307.80 L 405.50 300.30 L 406.80 292.90 L 407.70 285.50 L 408.20 278.20 L 408.20 270.90 L 406.90 259.70 L 405.20 248.70 L 403.00 238.00 L 400.50 227.60 L 397.50 217.40 L 394.10 207.20 L 390.40 197.40 L 386.20 187.90 L 381.70 178.70 L 376.90 169.80 L 371.60 161.10 L 366.00 152.80 L 360.10 144.90 L 353.90 137.40 L 347.30 130.20 L 340.40 123.40 L 333.10 117.00 L 325.60 111.10 L 317.80 105.60 L 309.70 100.60 L 301.30 96.00 L 292.70 92.00 L 283.70 88.40 L 274.50 85.40 L 265.00 82.90 L 255.40 80.90 L 245.60 79.60 L 235.40 78.80 L 224.90 78.70 L 214.10 79.10 L 202.60 80.20 L 191.40 81.80 L 180.40 84.00 L 169.60 86.60 L 158.90 89.70 L 148.60 93.30 L 138.50 97.30 L 128.70 101.80 L 119.20 106.70 L 110.00 111.90 L 101.20 117.60 L 92.70 123.50 L 84.50 129.90 L 76.80 136.60 L 69.50 143.60 L 62.60 150.90 L 56.20 158.50 L 50.20 166.30 L 44.70 174.40 L 39.70 182.70 L 35.20 191.20 L 31.30 200.00 L 27.90 208.80 L 25.10 217.90 L 22.90 227.10 L 21.30 236.40 L 20.30 245.90 L 20.00 255.50 L 20.50 262.20 L 21.50 269.10 L 22.90 276.30 L 24.90 283.80 L 30.00 298.50 L 37.00 313.90 L 42.40 324.00 L 48.50 334.10 L 55.40 344.40 L 62.80 354.30 L 70.80 364.00 L 79.40 373.60 L 88.40 382.80 L 98.00 391.60 L 108.00 400.00 L 123.90 411.70 L 140.60 422.20 L 149.30 426.90 L 158.10 431.20 L 167.10 435.00 L 176.20 438.50 L 185.50 441.40 L 194.90 443.90 L 204.50 445.90 L 214.10 447.30 Z" fill="#e8748a" fill-opacity="0.3" fill-rule="evenodd" group-id="1,2,6" id="2" node-id="14" stroke="none" target-height="368.8" target-width="388.2" target-x="20" target-y="78.7"></path></g><g node-id="36"><path d="M 227.90 410.50 L 238.50 412.00 L 248.70 413.00 L 258.60 413.40 L 268.10 413.40 L 277.50 412.80 L 286.90 411.80 L 296.00 410.30 L 304.80 408.40 L 313.30 406.00 L 321.60 403.30 L 329.70 400.00 L 337.60 396.40 L 345.20 392.50 L 352.40 388.20 L 359.50 383.50 L 366.20 378.50 L 372.70 373.20 L 378.90 367.50 L 384.70 361.60 L 390.30 355.40 L 396.80 347.30 L 402.80 338.80 L 408.30 330.00 L 413.30 320.80 L 417.70 311.30 L 421.50 301.60 L 424.80 291.70 L 427.60 281.50 L 429.70 271.10 L 431.20 260.60 L 432.10 250.00 L 432.70 232.10 L 432.60 225.00 L 432.10 217.80 L 431.10 210.70 L 429.70 203.50 L 427.40 194.60 L 424.50 185.80 L 421.00 177.10 L 416.90 168.30 L 412.30 159.90 L 407.30 151.50 L 401.70 143.30 L 395.60 135.10 L 389.20 127.30 L 382.30 119.70 L 375.10 112.40 L 367.40 105.20 L 359.50 98.40 L 351.20 91.90 L 342.70 85.80 L 333.80 79.90 L 324.70 74.50 L 315.50 69.40 L 306.00 64.80 L 296.40 60.60 L 286.60 56.80 L 276.70 53.50 L 266.70 50.80 L 256.70 48.50 L 246.50 46.80 L 236.40 45.60 L 226.40 45.00 L 205.00 45.30 L 194.10 46.20 L 183.60 47.60 L 173.50 49.40 L 163.80 51.80 L 154.10 54.70 L 144.80 58.10 L 135.90 61.80 L 127.40 66.00 L 119.20 70.60 L 111.30 75.60 L 103.70 81.00 L 96.50 86.70 L 89.70 92.80 L 83.30 99.10 L 77.20 105.80 L 71.50 112.80 L 66.30 120.00 L 61.40 127.40 L 56.90 135.10 L 52.80 143.10 L 49.10 151.10 L 45.90 159.40 L 43.10 167.80 L 40.70 176.30 L 38.80 185.00 L 37.30 193.80 L 36.20 202.60 L 35.70 211.50 L 35.50 220.50 L 38.50 239.20 L 40.80 250.00 L 43.90 262.00 L 46.40 270.10 L 52.70 287.40 L 56.50 296.10 L 60.80 304.90 L 65.80 313.90 L 71.20 322.60 L 77.30 331.30 L 84.10 340.00 L 89.50 346.20 L 95.30 352.30 L 101.70 358.30 L 108.50 364.10 L 115.50 369.60 L 123.10 374.90 L 131.30 380.00 L 140.00 385.00 L 148.90 389.40 L 158.40 393.50 L 168.60 397.30 L 179.50 400.90 L 190.40 403.90 L 202.10 406.50 L 214.50 408.70 L 227.90 410.50 Z" fill="#e8748a" fill-opacity="0.4" fill-rule="evenodd" group-id="1,2,7" id="3" node-id="15" stroke="none" target-height="368.4" target-width="397.2" target-x="35.5" target-y="45"></path></g><g node-id="37"><path d="M 213.20 406.50 L 236.30 410.40 L 258.00 412.50 L 268.80 412.90 L 279.20 412.80 L 289.20 412.20 L 298.80 411.10 L 306.50 409.70 L 314.00 408.00 L 321.10 405.90 L 328.00 403.40 L 334.60 400.60 L 341.00 397.30 L 347.20 393.60 L 353.10 389.40 L 358.80 384.80 L 364.20 379.70 L 369.20 374.30 L 373.90 368.30 L 378.30 361.80 L 382.60 354.60 L 386.50 346.80 L 389.90 339.10 L 393.00 330.60 L 395.80 321.40 L 398.40 311.40 L 400.60 300.50 L 402.20 290.00 L 403.50 278.80 L 404.40 266.60 L 405.00 253.40 L 405.10 239.20 L 402.20 226.30 L 398.90 214.20 L 395.20 203.00 L 391.20 192.40 L 386.50 181.90 L 381.50 172.10 L 376.20 163.00 L 370.70 154.50 L 364.60 146.30 L 358.40 138.60 L 351.90 131.50 L 345.20 125.00 L 338.10 118.80 L 330.90 113.10 L 323.60 107.90 L 316.10 103.10 L 308.40 98.80 L 300.60 94.90 L 292.80 91.40 L 276.90 85.70 L 260.90 81.60 L 253.00 80.10 L 242.40 78.70 L 232.00 77.90 L 221.90 77.70 L 208.80 78.40 L 196.50 79.60 L 185.00 81.20 L 174.20 83.10 L 164.10 85.40 L 153.70 88.20 L 144.00 91.30 L 134.90 94.80 L 126.40 98.50 L 118.40 102.50 L 110.50 107.00 L 103.20 111.80 L 96.30 116.90 L 89.90 122.20 L 84.00 127.70 L 78.40 133.70 L 73.10 139.90 L 68.30 146.30 L 63.90 152.90 L 59.90 159.80 L 55.40 168.70 L 51.40 177.90 L 48.00 187.50 L 45.10 197.40 L 42.70 207.40 L 40.90 217.70 L 39.50 228.30 L 38.60 239.20 L 39.90 245.70 L 43.80 260.70 L 46.40 268.40 L 53.20 285.30 L 57.20 293.80 L 61.80 302.60 L 67.00 311.50 L 72.60 320.20 L 78.80 328.90 L 85.60 337.50 L 92.80 345.80 L 100.70 353.90 L 109.20 361.70 L 115.90 367.30 L 122.90 372.50 L 130.30 377.60 L 138.10 382.40 L 146.10 386.80 L 154.50 390.80 L 163.40 394.50 L 172.70 397.90 L 182.10 400.70 L 191.90 403.10 L 202.30 405.00 L 213.20 406.50 Z" fill="#e8748a" fill-opacity="0.4" fill-rule="evenodd" group-id="1,2,8" id="4" node-id="16" stroke="none" target-height="335.2" target-width="366.5" target-x="38.6" target-y="77.7"></path></g><path d="M 215.40 367.60 L 228.40 365.60 L 240.80 363.10 L 252.70 360.20 L 264.10 356.80 L 275.50 352.80 L 286.30 348.50 L 296.50 343.90 L 306.20 338.90 L 315.80 333.30 L 324.70 327.50 L 333.00 321.30 L 340.80 314.90 L 348.30 308.00 L 355.10 300.90 L 361.30 293.60 L 366.90 286.10 L 371.10 279.80 L 374.90 273.40 L 378.20 266.80 L 381.10 260.20 L 383.60 253.50 L 385.80 246.60 L 387.50 239.60 L 388.80 232.50 L 391.00 207.40 L 391.40 197.20 L 391.20 187.60 L 390.50 178.40 L 389.20 169.60 L 387.40 160.70 L 385.00 152.30 L 382.20 144.30 L 379.00 136.70 L 375.20 129.50 L 371.00 122.40 L 366.30 115.80 L 361.30 109.50 L 355.80 103.60 L 349.90 98.10 L 343.60 92.90 L 337.00 88.10 L 330.00 83.70 L 322.60 79.60 L 314.90 75.90 L 307.00 72.60 L 298.80 69.70 L 290.20 67.20 L 281.30 65.10 L 272.00 63.30 L 262.80 62.00 L 253.40 61.10 L 243.60 60.60 L 233.60 60.50 L 223.20 60.80 L 211.50 63.80 L 200.50 67.10 L 190.00 70.70 L 180.00 74.70 L 170.60 78.90 L 161.70 83.40 L 152.70 88.50 L 144.30 93.80 L 136.30 99.40 L 128.80 105.30 L 121.80 111.50 L 115.20 117.90 L 108.90 124.80 L 103.00 132.00 L 97.60 139.40 L 92.50 147.00 L 87.90 155.00 L 83.60 163.30 L 79.80 171.70 L 76.40 180.40 L 73.40 189.30 L 70.80 198.60 L 68.60 208.20 L 66.80 218.10 L 66.70 254.60 L 67.20 267.50 L 68.70 284.60 L 69.90 293.10 L 71.60 301.40 L 73.80 309.50 L 76.40 317.30 L 78.70 323.00 L 81.50 328.50 L 84.50 333.70 L 88.00 338.70 L 91.80 343.40 L 96.10 347.90 L 100.90 352.00 L 106.20 355.90 L 111.80 359.30 L 118.00 362.30 L 124.90 365.10 L 132.60 367.40 L 140.20 369.20 L 148.60 370.50 L 158.00 371.40 L 168.50 371.80 L 178.50 371.70 L 189.70 370.90 L 201.90 369.60 L 215.40 367.60 Z" fill="#e8748a" fill-opacity="0.6" fill-rule="evenodd" group-id="1,2,9" id="5" node-id="17" stroke="none" target-height="311.3" target-width="324.7" target-x="66.7" target-y="60.5"></path></g><path d="M 285.30 312.40 L 288.10 312.60 L 293.30 314.00 L 295.80 315.10 L 299.90 318.20 L 303.10 322.30 L 304.30 324.70 L 305.80 329.90 L 306.00 332.60 L 305.80 335.40 L 304.30 340.50 L 303.10 342.90 L 299.90 347.00 L 295.80 350.10 L 293.30 351.40 L 290.70 352.30 L 285.30 353.00 L 282.50 352.80 L 277.40 351.40 L 275.00 350.10 L 270.90 347.00 L 267.70 342.90 L 266.50 340.50 L 265.00 335.40 L 264.80 332.60 L 265.00 329.90 L 266.50 324.70 L 267.70 322.30 L 270.90 318.20 L 275.00 315.10 L 277.40 314.00 L 282.50 312.60 L 285.30 312.40 Z M 193.70 312.00 L 196.50 312.20 L 201.60 313.50 L 204.00 314.70 L 208.10 317.80 L 211.30 321.90 L 212.50 324.30 L 214.00 329.40 L 214.20 332.20 L 214.00 334.90 L 212.50 340.10 L 211.30 342.50 L 208.10 346.50 L 204.00 349.70 L 201.60 350.90 L 196.50 352.40 L 193.70 352.60 L 190.80 352.40 L 185.60 350.90 L 183.10 349.70 L 179.10 346.50 L 175.90 342.50 L 174.70 340.10 L 173.20 334.90 L 173.00 332.20 L 173.20 329.40 L 174.70 324.30 L 175.90 321.90 L 179.10 317.80 L 183.10 314.70 L 185.60 313.50 L 190.80 312.20 L 193.70 312.00 Z" fill="url(#linearGradient-1)" fill-rule="nonzero" group-id="1" id="形状结合" node-id="18" stroke="none" target-height="41" target-width="133" target-x="173" target-y="312"></path><path d="M 322.30 188.90 L 326.40 189.10 L 329.50 189.70 L 331.80 190.60 L 334.00 191.80 L 335.60 193.10 L 336.70 194.60 L 337.90 197.90 L 337.70 202.30 L 324.60 240.20 L 318.80 255.90 L 317.00 259.30 L 315.20 261.70 L 313.40 263.50 L 311.10 265.00 L 308.70 266.00 L 305.90 266.70 L 302.70 266.90 L 187.20 266.90 L 190.30 286.50 L 301.40 286.50 L 304.50 286.70 L 306.90 287.30 L 308.70 288.20 L 310.10 289.50 L 311.10 291.00 L 311.70 292.90 L 311.90 295.40 L 311.70 298.20 L 311.00 300.70 L 309.80 302.90 L 308.70 304.10 L 307.00 305.10 L 304.70 305.80 L 301.60 306.00 L 186.30 306.00 L 183.50 305.80 L 181.00 305.10 L 179.00 304.00 L 177.10 302.60 L 174.00 298.90 L 172.20 295.70 L 170.80 292.10 L 169.00 285.10 L 149.20 182.20 L 132.70 182.20 L 130.50 182.00 L 128.70 181.50 L 127.20 180.60 L 125.10 178.80 L 123.50 176.70 L 122.30 174.30 L 121.10 169.20 L 121.20 164.90 L 121.80 163.00 L 122.70 161.30 L 124.00 159.80 L 125.50 158.60 L 127.40 157.70 L 129.50 157.20 L 154.20 157.00 L 157.10 157.20 L 161.30 158.30 L 163.70 159.80 L 165.40 161.60 L 166.80 163.60 L 167.60 165.70 L 168.70 169.40 L 169.60 174.30 L 171.80 188.90 L 322.30 188.90 Z" fill="#ffffff" fill-rule="nonzero" group-id="1" id="路径" node-id="19" stroke="none" target-height="149" target-width="216.79999" target-x="121.1" target-y="157"></path><g node-id="32"><path d="M 316.00 177.00 L 249.00 177.00 L 273.20 153.20 L 275.40 151.40 L 277.70 150.10 L 280.00 149.30 L 282.40 149.00 L 284.80 149.20 L 287.10 149.90 L 289.40 151.20 L 291.70 153.10 L 316.00 177.00 Z" fill="#ffffff" fill-opacity="0.5" fill-rule="nonzero" group-id="1,3" id="路径备份" node-id="20" stroke="none" target-height="28" target-width="67" target-x="249" target-y="149"></path></g><path d="M 306.00 182.00 L 225.00 182.00 L 254.20 153.10 L 256.90 150.90 L 259.70 149.30 L 262.50 148.30 L 265.40 148.00 L 268.30 148.30 L 271.10 149.10 L 273.80 150.70 L 276.60 152.90 L 306.00 182.00 Z" fill="#ffffff" fill-opacity="0.8" fill-rule="nonzero" group-id="1,4" id="路径" node-id="21" stroke="none" target-height="34" target-width="81" target-x="225" target-y="148"></path></g></svg>