<?xml version="1.0" standalone="no"?><!DOCTYPE svg PUBLIC "-//W3C//DTD SVG 1.1//EN" "http://www.w3.org/Graphics/SVG/1.1/DTD/svg11.dtd"><svg t="1735980686786" class="icon" viewBox="0 0 1024 1024" version="1.1" xmlns="http://www.w3.org/2000/svg" p-id="6255" xmlns:xlink="http://www.w3.org/1999/xlink" width="200" height="200"><path d="M214.1184 891.8016V757.76h-10.8032a101.5296 101.5296 0 0 1-101.376-101.376V266.5472a101.5296 101.5296 0 0 1 101.376-101.376h624.64a101.5296 101.5296 0 0 1 101.376 101.376v389.6832a101.4784 101.4784 0 0 1-101.376 101.376H455.68zM203.3152 229.1712a37.4784 37.4784 0 0 0-37.376 37.376v389.6832a37.4784 37.4784 0 0 0 37.376 37.376h74.8032v89.4464l161.0752-89.4464h388.5056a37.4272 37.4272 0 0 0 37.376-37.376V266.5472a37.4272 37.4272 0 0 0-37.376-37.376z" fill="#2c2c2c" p-id="6256"></path><path d="M377.3952 321.7408m28.16 0l17.3568 0q28.16 0 28.16 28.16l0 67.6352q0 28.16-28.16 28.16l-17.3568 0q-28.16 0-28.16-28.16l0-67.6352q0-28.16 28.16-28.16Z" fill="#2c2c2c" p-id="6257"></path><path d="M698.8288 321.7408m28.16 0l17.3568 0q28.16 0 28.16 28.16l0 67.6352q0 28.16-28.16 28.16l-17.3568 0q-28.16 0-28.16-28.16l0-67.6352q0-28.16 28.16-28.16Z" fill="#2c2c2c" p-id="6258"></path><path d="M552.448 641.6384a403.0976 403.0976 0 0 1-164.4032-34.9696 28.16 28.16 0 1 1 23.04-51.2 341.8624 341.8624 0 0 0 161.9968 29.44 346.2144 346.2144 0 0 0 162.5088-51.7632 28.16 28.16 0 0 1 29.9008 47.7696 403.0464 403.0464 0 0 1-189.0304 60.2112c-8.1408 0.3072-16.0256 0.512-24.0128 0.512z" fill="#2c2c2c" p-id="6259"></path></svg>