<?xml version="1.0" standalone="no"?><!DOCTYPE svg PUBLIC "-//W3C//DTD SVG 1.1//EN" "http://www.w3.org/Graphics/SVG/1.1/DTD/svg11.dtd"><svg t="1735984852878" class="icon" viewBox="0 0 1024 1024" version="1.1" xmlns="http://www.w3.org/2000/svg" p-id="42162" xmlns:xlink="http://www.w3.org/1999/xlink" width="200" height="200"><path d="M512 128C230.4 128 51.2 299.52 51.2 509.44s179.2 381.44 460.8 381.44c48.64 0 115.2-7.68 153.6-20.48l148.48 84.48c33.28 20.48 76.8-5.12 76.8-43.52v-184.32c2.56-2.56 2.56-5.12 5.12-5.12 51.2-76.8 76.8-115.2 76.8-212.48C972.8 299.52 793.6 128 512 128z m345.6 455.68c-10.24 20.48-23.04 43.52-51.2 87.04-10.24 17.92-17.92 35.84-17.92 56.32v97.28L716.8 780.8c-25.6-15.36-56.32-17.92-81.92-7.68-23.04 7.68-76.8 12.8-120.32 12.8-240.64 0-358.4-138.24-358.4-279.04C153.6 368.64 271.36 230.4 512 230.4s358.4 138.24 358.4 279.04c0 38.4-5.12 56.32-12.8 74.24z" p-id="42163"></path><path d="M512 512m-76.8 0a76.8 76.8 0 1 0 153.6 0 76.8 76.8 0 1 0-153.6 0Z" p-id="42164"></path><path d="M307.2 512m-76.8 0a76.8 76.8 0 1 0 153.6 0 76.8 76.8 0 1 0-153.6 0Z" p-id="42165"></path><path d="M716.8 512m-76.8 0a76.8 76.8 0 1 0 153.6 0 76.8 76.8 0 1 0-153.6 0Z" p-id="42166"></path></svg>