<?xml version="1.0" standalone="no"?><!DOCTYPE svg PUBLIC "-//W3C//DTD SVG 1.1//EN" "http://www.w3.org/Graphics/SVG/1.1/DTD/svg11.dtd"><svg t="1735980726291" class="icon" viewBox="0 0 1024 1024" version="1.1" xmlns="http://www.w3.org/2000/svg" p-id="8110" xmlns:xlink="http://www.w3.org/1999/xlink" width="200" height="200"><path d="M872.433664 410.624c34.132992 19.796992 59.904 46.763008 77.312 80.896s23.892992 70.827008 19.456 110.08c-4.438016 39.252992-18.774016 73.728-43.008 103.424-24.235008 29.696-55.126016 50.688-92.672 62.976-14.336 61.44-44.886016 110.763008-91.648 147.968-46.763008 37.204992-101.547008 56.491008-164.352 57.856h-98.304c-9.558016 0-17.408-3.072-23.552-9.216s-9.216-13.995008-9.216-23.552 3.072-17.408 9.216-23.552 13.993984-9.216 23.552-9.216h98.304c42.324992-0.683008 80.212992-12.8 113.664-36.352 33.449984-23.552 57.344-55.124992 71.68-94.72h-21.504c-9.558016 0-17.408-3.072-23.552-9.216s-9.216-13.995008-9.216-23.552V416.768c0-9.556992 3.072-17.408 9.216-23.552s13.993984-9.216 23.552-9.216h32.768c10.921984 0 21.504 0.683008 31.744 2.048-9.558016-76.459008-41.472-139.264-95.744-188.416s-120.32-74.411008-198.144-75.776c-77.824 1.364992-143.872 26.624-198.144 75.776s-86.187008 111.956992-95.744 188.416c10.24-1.364992 20.820992-2.048 31.744-2.048h32.768c9.556992 0 17.408 3.072 23.552 9.216s9.216 13.995008 9.216 23.552v327.68c0 9.556992-3.072 17.408-9.216 23.552s-13.995008 9.216-23.552 9.216h-32.768c-45.739008-0.683008-85.675008-14.164992-119.808-40.448-34.134016-26.283008-57.174016-61.44-69.12-105.472-11.947008-44.032-9.558016-86.016 7.168-125.952 16.724992-39.936 44.544-71.508992 83.456-94.72 2.729984-102.4 37.888-187.563008 105.472-255.488s152.576-102.912 254.976-104.96c102.4 2.048 187.392 37.035008 254.976 104.96s102.740992 153.088 105.472 255.488z m-622.592 38.912c-36.864 0.683008-67.755008 13.483008-92.672 38.4-24.918016 24.916992-37.718016 55.808-38.4 92.672 0.681984 36.864 13.481984 67.755008 38.4 92.672 24.916992 24.916992 55.808 37.716992 92.672 38.4V449.536z m655.36 131.072c-0.683008-36.864-13.483008-67.755008-38.4-92.672-24.918016-24.916992-55.808-37.716992-92.672-38.4v262.144c36.864-0.683008 67.753984-13.483008 92.672-38.4 24.916992-24.916992 37.716992-55.808 38.4-92.672z" p-id="8111"></path></svg>