<?xml version="1.0" standalone="no"?><!DOCTYPE svg PUBLIC "-//W3C//DTD SVG 1.1//EN" "http://www.w3.org/Graphics/SVG/1.1/DTD/svg11.dtd"><svg t="1735980887548" class="icon" viewBox="0 0 1024 1024" version="1.1" xmlns="http://www.w3.org/2000/svg" p-id="15567" xmlns:xlink="http://www.w3.org/1999/xlink" width="200" height="200"><path d="M855.848421 106.442105a42.469053 42.469053 0 0 1-42.469053 42.469053H203.452632a42.469053 42.469053 0 0 1 0-84.938105h609.926736c23.498105 0 42.469053 19.024842 42.469053 42.469052z m-344.010105 157.911579a42.469053 42.469053 0 0 0-42.469053 42.469053V916.749474a42.469053 42.469053 0 1 0 84.938105 0V306.822737a42.469053 42.469053 0 0 0-42.469052-42.469053z m30.127158-31.312842c-16.599579-16.599579-42.522947-17.569684-57.936842-2.155789l-312.751158 312.805052c-15.413895 15.413895-14.497684 41.337263 2.101894 57.936842 16.599579 16.545684 42.522947 17.515789 57.936843 2.101895l312.751157-312.805053c15.413895-15.36 14.497684-41.337263-2.155789-57.882947z m-60.254316 0c-16.599579 16.545684-17.569684 42.522947-2.15579 57.882947l312.805053 312.805053c15.413895 15.413895 41.337263 14.443789 57.936842-2.155789 16.545684-16.545684 17.515789-42.469053 2.15579-57.882948l-312.805053-312.805052c-15.413895-15.413895-41.391158-14.443789-57.936842 2.155789z" fill="#666666" p-id="15568"></path></svg>