<?xml version="1.0" standalone="no"?><!DOCTYPE svg PUBLIC "-//W3C//DTD SVG 1.1//EN" "http://www.w3.org/Graphics/SVG/1.1/DTD/svg11.dtd"><svg t="1735981030739" class="icon" viewBox="0 0 1024 1024" version="1.1" xmlns="http://www.w3.org/2000/svg" p-id="17435" xmlns:xlink="http://www.w3.org/1999/xlink" width="200" height="200"><path d="M512 170.666667a170.666667 170.666667 0 1 0 0 341.333333 170.666667 170.666667 0 0 0 0-341.333333zM256 341.333333a256 256 0 1 1 512 0A256 256 0 0 1 256 341.333333z m85.333333 426.666667a128 128 0 0 0-128 128 42.666667 42.666667 0 1 1-85.333333 0 213.333333 213.333333 0 0 1 213.333333-213.333333h341.333334a213.333333 213.333333 0 0 1 213.333333 213.333333 42.666667 42.666667 0 1 1-85.333333 0 128 128 0 0 0-128-128H341.333333z" fill="#0D0D0D" p-id="17436"></path></svg>